<?xml version="1.0" encoding="UTF-8"?>
<svg version="1.1" xmlns="http://www.w3.org/2000/svg" width="500" height="500">
<path d="M0 0 C165 0 330 0 500 0 C500 165 500 330 500 500 C335 500 170 500 0 500 C0 335 0 170 0 0 Z " fill="#0E0E4A" transform="translate(0,0)"/>
<path d="M0 0 C1.18654678 -0.00540298 2.37309357 -0.01080597 3.59559631 -0.01637268 C6.82514345 -0.02668101 10.05401531 -0.01922324 13.28351784 -0.00266147 C16.67855786 0.01128166 20.07356954 0.00471849 23.46862793 0.00120544 C29.16781188 -0.00148942 34.86678436 0.0119162 40.56591797 0.03515625 C47.13538324 0.06176156 53.70449518 0.06351045 60.27399588 0.05176789 C66.61879039 0.04095236 72.96345829 0.04720665 79.3082428 0.06132317 C81.99702482 0.06705037 84.68571319 0.06702624 87.37449646 0.06225777 C91.13659729 0.05933688 94.89812763 0.07589584 98.66015625 0.09765625 C99.7638002 0.0931546 100.86744415 0.08865295 102.00453186 0.08401489 C109.39151139 0.15475342 116.81103063 0.48266149 122.26757812 5.93920898 C123.04101562 7.20764648 123.04101562 7.20764648 123.83007812 8.50170898 C124.18827637 9.08017578 124.54647461 9.65864258 124.91552734 10.25463867 C126.14124633 13.26625575 126.05490589 15.77065467 126.02539062 19.01733398 C126.01572266 20.89291992 126.01572266 20.89291992 126.00585938 22.80639648 C125.98072266 24.75932617 125.98072266 24.75932617 125.95507812 26.75170898 C125.94605469 28.06913086 125.93703125 29.38655273 125.92773438 30.74389648 C125.90416345 33.9966836 125.87125835 37.24910487 125.83007812 40.50170898 C126.44496094 40.54561768 127.05984375 40.58952637 127.69335938 40.63476562 C128.50160156 40.7055835 129.30984375 40.77640137 130.14257812 40.84936523 C130.94308594 40.91389893 131.74359375 40.97843262 132.56835938 41.04492188 C136.08215357 41.75458389 137.68498848 43.75331288 139.83007812 46.50170898 C141.1705985 49.18274974 140.96523521 51.24796345 140.97724915 54.251297 C140.9879821 56.08728203 140.9879821 56.08728203 140.99893188 57.96035767 C141.00177227 59.32415746 141.00448398 60.68795753 141.00708008 62.05175781 C141.01334381 63.48234727 141.01999053 64.91293509 141.0269928 66.34352112 C141.04441049 70.23617058 141.05495659 74.12880774 141.06319833 78.02148652 C141.06834674 80.45277448 141.07442254 82.8840586 141.08070946 85.31534386 C141.09976348 92.92019424 141.1139943 100.5250349 141.12232143 108.12990457 C141.13209638 116.91235689 141.15842159 125.69455735 141.19882232 134.4769209 C141.22896789 141.26254804 141.2437888 148.04810292 141.24710244 154.83379573 C141.24945467 158.8878389 141.25843727 162.94161306 141.28356361 166.99558449 C141.30682243 170.8099032 141.31108668 174.62377538 141.30080223 178.43814659 C141.30030622 179.83737548 141.30664595 181.23662618 141.32035828 182.63578796 C141.33804406 184.54750037 141.3285965 186.45940617 141.31782532 188.37117004 C141.32021367 189.44061765 141.32260202 190.51006525 141.32506275 191.61192036 C140.70722667 195.21893274 139.34064254 196.88946955 136.83007812 199.50170898 C134.17100229 200.8312469 132.16442444 200.6215693 129.18701172 200.61523438 C128.00593842 200.61515884 126.82486511 200.61508331 125.60800171 200.61500549 C124.3277713 200.60984421 123.04754089 200.60468292 121.72851562 200.59936523 C120.42177887 200.59795029 119.11504211 200.59653534 117.76870728 200.59507751 C114.29331555 200.59125793 110.81796556 200.58143241 107.34259033 200.57037354 C103.79675867 200.56014741 100.25092028 200.55557732 96.70507812 200.55053711 C89.74672764 200.53980965 82.78840488 200.52273991 75.83007812 200.50170898 C75.41254272 201.39684204 75.41254272 201.39684204 74.98657227 202.31005859 C73.23971035 205.6205039 70.72710829 208.27095075 68.26757812 211.06420898 C63.6146567 216.39907246 59.12586003 221.81241245 54.76757812 227.39233398 C52.86910324 229.45922196 51.41048065 230.46494011 48.83007812 231.50170898 C43.34746107 225.52656368 38.07554647 219.43326466 32.98242188 213.12280273 C30.42973829 210.0141808 27.762849 207.02475387 25.04492188 204.06030273 C23.83007812 202.50170898 23.83007812 202.50170898 23.83007812 200.50170898 C23.10202469 200.51281204 22.37397125 200.5239151 21.62385559 200.53535461 C14.75311686 200.63565761 7.88248794 200.71172505 1.01120472 200.76076984 C-2.52125032 200.78683287 -6.05309901 200.82216764 -9.58520508 200.87890625 C-13.64865849 200.94376963 -17.71147786 200.9679163 -21.77539062 200.98999023 C-23.04013718 201.01579666 -24.30488373 201.04160309 -25.60795593 201.06819153 C-35.37602874 201.07131553 -35.37602874 201.07131553 -38.44458008 198.09619141 C-40.98405507 194.27745634 -41.29864654 192.37073216 -41.3170929 187.79681396 C-41.3242482 186.58268326 -41.3314035 185.36855255 -41.33877563 184.11763 C-41.34161603 182.76486232 -41.34432774 181.41209435 -41.34692383 180.05932617 C-41.35318765 178.64021131 -41.35983438 177.2210981 -41.36683655 175.80198669 C-41.38425497 171.94026089 -41.39480084 168.07854747 -41.40304208 164.21679211 C-41.40819102 161.80425743 -41.41426683 159.3917266 -41.42055321 156.97919464 C-41.43960863 149.43147337 -41.45383837 141.88376189 -41.46216518 134.33602118 C-41.47193646 125.6226285 -41.4982515 116.90948993 -41.53866607 108.19618678 C-41.56882764 101.46234825 -41.58363412 94.72858255 -41.58694619 87.99467778 C-41.58929686 83.97245979 -41.59825902 79.95051316 -41.62340736 75.92836761 C-41.64669372 72.142772 -41.65091932 68.35762629 -41.64064598 64.57197762 C-41.64015062 63.18445654 -41.64647126 61.79691329 -41.66020203 60.40946007 C-41.78246822 47.31968179 -41.78246822 47.31968179 -37.16992188 42.50170898 C-33.45371155 40.35021879 -30.38870655 40.443599 -26.16992188 40.50170898 C-26.18039551 39.69016357 -26.19086914 38.87861816 -26.20166016 38.04248047 C-26.24340837 34.34142187 -26.26930801 30.64041298 -26.29492188 26.93920898 C-26.32005859 25.02398437 -26.32005859 25.02398437 -26.34570312 23.07006836 C-26.41071838 10.55463091 -26.41071838 10.55463091 -24.16992188 5.50170898 C-23.17992187 5.17170898 -22.18992188 4.84170898 -21.16992188 4.50170898 C-20.5647448 4.18655303 -19.95956772 3.87139708 -19.33605194 3.54669094 C-12.8534464 0.21364667 -7.20019174 -0.06307399 0 0 Z " fill="#BECDFA" transform="translate(200.169921875,117.498291015625)"/>
<path d="M0 0 C7.82806783 -0.25421045 15.65506708 -0.42893918 23.48632812 -0.54931641 C26.14975911 -0.59386893 28.8077821 -0.6676171 31.47070312 -0.75439453 C35.30407393 -0.87615706 39.13379393 -0.93250597 42.96875 -0.9765625 C44.74421204 -1.05398178 44.74421204 -1.05398178 46.55554199 -1.13296509 C54.69500993 -1.13845148 54.69500993 -1.13845148 58.46368408 2.14927673 C60.49696752 4.68171739 62.25146406 7.26621659 64 10 C65.13760858 11.38067893 66.29508103 12.74561535 67.484375 14.08203125 C68.02707031 14.70400391 68.56976563 15.32597656 69.12890625 15.96679688 C69.66386719 16.57587891 70.19882813 17.18496094 70.75 17.8125 C74.25338679 21.81226829 77.71608329 25.8153974 81 30 C85.38198199 28.41413985 87.86905053 24.97361501 90.75 21.5 C91.54071899 20.56148193 91.54071899 20.56148193 92.34741211 19.60400391 C99.78031646 11.09613036 99.78031646 11.09613036 106.25874329 1.89801025 C108 0 108 0 110.48674011 -0.48101807 C111.47491226 -0.47213562 112.46308441 -0.46325317 113.48120117 -0.45410156 C114.60213669 -0.45379944 115.7230722 -0.45349731 116.87797546 -0.45318604 C118.08742325 -0.43254089 119.29687103 -0.41189575 120.54296875 -0.390625 C121.78170242 -0.38496521 123.0204361 -0.37930542 124.29670715 -0.37347412 C127.58664278 -0.35486224 130.87579481 -0.31893668 134.16546631 -0.2746582 C137.52362479 -0.23370629 140.88189805 -0.2154634 144.24023438 -0.1953125 C150.82713013 -0.15116388 157.41350096 -0.08418959 164 0 C164 0.33 164 0.66 164 1 C162.02 1 160.04 1 158 1 C158.01110306 1.79513504 158.02220612 2.59027008 158.03364563 3.40950012 C158.13378687 10.89902823 158.20993308 18.38823228 158.25906086 25.87825489 C158.28516727 29.72910405 158.32058231 33.57940058 158.37719727 37.42993164 C158.43148295 41.14524967 158.46141268 44.86003586 158.47438622 48.57571983 C158.48363259 49.99398868 158.50168912 51.41222806 158.52865028 52.83027077 C158.56488313 54.81470023 158.56704187 56.7996637 158.56762695 58.78442383 C158.57873001 59.91471512 158.58983307 61.04500641 158.60127258 62.20954895 C158 65 158 65 155.52702332 66.76347351 C154.69310562 67.17152725 153.85918793 67.57958099 153 68 C152.67 68.66 152.34 69.32 152 70 C151.34 70 150.68 70 150 70 C150 70.66 150 71.32 150 72 C144.04598061 73.30878112 138.13909672 73.11373359 132.07885742 73.06933594 C130.88299515 73.06454727 129.68713287 73.05975861 128.45503235 73.05482483 C125.18625107 73.04020084 121.91754826 73.02078148 118.64881301 72.99825954 C116.60275171 72.98435654 114.55668638 72.97173269 112.5106144 72.9595108 C105.36143806 72.91651532 98.21233196 72.86721098 91.06323242 72.81298828 C84.41728199 72.76277767 77.77136292 72.72754348 71.12528723 72.69905448 C65.40439018 72.6737724 59.68363523 72.63713479 53.96286088 72.59196877 C50.55272011 72.56527965 47.14270649 72.54322599 43.73247337 72.53295135 C39.92450894 72.51858261 36.11712467 72.48564413 32.30932617 72.44824219 C31.19161835 72.44810623 30.07391052 72.44797028 28.92233276 72.4478302 C21.49650246 72.34865914 14.59193339 71.69395004 8.5 67.125 C5.6987011 63.15649323 5.87635544 58.74201048 5.88647461 54.01635742 C5.88655014 52.83551071 5.88662567 51.654664 5.88670349 50.43803406 C5.89186478 49.17328751 5.89702606 47.90854095 5.90234375 46.60546875 C5.9037587 45.30297684 5.90517365 44.00048492 5.90663147 42.65852356 C5.91043645 39.20783546 5.92024936 35.75718992 5.93133545 32.30651855 C5.94159311 28.78052343 5.9461384 25.25452139 5.95117188 21.72851562 C5.96187356 14.81899301 5.97892557 7.90949855 6 1 C4.02 1 2.04 1 0 1 C0 0.67 0 0.34 0 0 Z " fill="#211F74" transform="translate(168,318)"/>
<path d="M0 0 C1.65107002 -0.00618599 1.65107002 -0.00618599 3.335495 -0.01249695 C5.13192444 0.00368179 5.13192444 0.00368179 6.96464539 0.02018738 C8.23333969 0.0197493 9.502034 0.01931122 10.80917358 0.01885986 C14.27996936 0.0180004 17.75045303 0.03561789 21.22117639 0.05658174 C24.8513227 0.07535688 28.48147645 0.07709963 32.11166382 0.08065796 C38.98226384 0.08997598 45.85272036 0.11458641 52.72325724 0.14470643 C60.54666235 0.17825804 68.37007438 0.19473835 76.19353354 0.20979273 C92.2835812 0.24113624 108.37348462 0.29389194 124.46342468 0.36076355 C124.46342468 1.02076355 124.46342468 1.68076355 124.46342468 2.36076355 C125.45342468 2.69076355 126.44342468 3.02076355 127.46342468 3.36076355 C127.46342468 10.62076355 127.46342468 17.88076355 127.46342468 25.36076355 C81.92342468 25.36076355 36.38342468 25.36076355 -10.53657532 25.36076355 C-10.53657532 18.10076355 -10.53657532 10.84076355 -10.53657532 3.36076355 C-4.91157532 -0.01423645 -4.91157532 -0.01423645 0 0 Z " fill="#1A1965" transform="translate(191.5365753173828,132.6392364501953)"/>
<path d="M0 0 C7.3430097 5.29964242 12.58411637 11.9784209 14.625 20.89453125 C15.76105566 30.39716352 14.55195761 39.24655832 9.01171875 47.21484375 C3.11289601 54.30389458 -4.16018554 59.31894142 -13.49609375 60.18359375 C-24.33546501 60.45927718 -31.96769217 57.7760684 -40.375 50.89453125 C-46.78656081 44.28783598 -49.47209464 37.01909062 -49.75 27.89453125 C-49.41757073 16.97977007 -45.27557051 9.68620019 -37.5625 2.14453125 C-26.03645474 -5.9915007 -12.3982003 -7.19297762 0 0 Z " fill="#4343C4" transform="translate(267.375,171.10546875)"/>
<path d="M0 0 C1.18654678 -0.00540298 2.37309357 -0.01080597 3.59559631 -0.01637268 C6.82514345 -0.02668101 10.05401531 -0.01922324 13.28351784 -0.00266147 C16.67855786 0.01128166 20.07356954 0.00471849 23.46862793 0.00120544 C29.16781188 -0.00148942 34.86678436 0.0119162 40.56591797 0.03515625 C47.13538324 0.06176156 53.70449518 0.06351045 60.27399588 0.05176789 C66.61879039 0.04095236 72.96345829 0.04720665 79.3082428 0.06132317 C81.99702482 0.06705037 84.68571319 0.06702624 87.37449646 0.06225777 C91.13659729 0.05933688 94.89812763 0.07589584 98.66015625 0.09765625 C99.7638002 0.0931546 100.86744415 0.08865295 102.00453186 0.08401489 C109.39151139 0.15475342 116.81103063 0.48266149 122.26757812 5.93920898 C123.04101562 7.20764648 123.04101562 7.20764648 123.83007812 8.50170898 C124.18827637 9.08017578 124.54647461 9.65864258 124.91552734 10.25463867 C126.14124633 13.26625575 126.05490589 15.77065467 126.02539062 19.01733398 C126.01572266 20.89291992 126.01572266 20.89291992 126.00585938 22.80639648 C125.98072266 24.75932617 125.98072266 24.75932617 125.95507812 26.75170898 C125.94605469 28.06913086 125.93703125 29.38655273 125.92773438 30.74389648 C125.90416345 33.9966836 125.87125835 37.24910487 125.83007812 40.50170898 C127.81007813 40.50170898 129.79007813 40.50170898 131.83007812 40.50170898 C131.83007812 40.83170898 131.83007812 41.16170898 131.83007812 41.50170898 C77.71007812 41.50170898 23.59007812 41.50170898 -32.16992188 41.50170898 C-32.16992188 41.17170898 -32.16992188 40.84170898 -32.16992188 40.50170898 C-30.18992188 40.50170898 -28.20992187 40.50170898 -26.16992188 40.50170898 C-26.18039551 39.69016357 -26.19086914 38.87861816 -26.20166016 38.04248047 C-26.24340837 34.34142187 -26.26930801 30.64041298 -26.29492188 26.93920898 C-26.32005859 25.02398437 -26.32005859 25.02398437 -26.34570312 23.07006836 C-26.41071838 10.55463091 -26.41071838 10.55463091 -24.16992188 5.50170898 C-23.17992187 5.17170898 -22.18992188 4.84170898 -21.16992188 4.50170898 C-20.5647448 4.18655303 -19.95956772 3.87139708 -19.33605194 3.54669094 C-12.8534464 0.21364667 -7.20019174 -0.06307399 0 0 Z M-19.16992188 18.50170898 C-19.16992188 25.76170898 -19.16992188 33.02170898 -19.16992188 40.50170898 C26.37007812 40.50170898 71.91007812 40.50170898 118.83007812 40.50170898 C118.83007812 33.24170898 118.83007812 25.98170898 118.83007812 18.50170898 C117.84007812 18.17170898 116.85007812 17.84170898 115.83007812 17.50170898 C115.83007812 16.84170898 115.83007812 16.18170898 115.83007812 15.50170898 C98.96655881 15.43162229 82.10308496 15.37872251 65.23945332 15.34627247 C57.40934187 15.33080475 49.57932093 15.3097171 41.74926758 15.27539062 C34.92444603 15.24548529 28.09969002 15.22613329 21.27480477 15.2194435 C17.66118676 15.21553314 14.04775628 15.20634541 10.43419838 15.18451881 C6.39981397 15.16034809 2.36575541 15.15973972 -1.66870117 15.16113281 C-3.46513062 15.14495407 -3.46513062 15.14495407 -5.29785156 15.12844849 C-6.94892159 15.13463448 -6.94892159 15.13463448 -8.63334656 15.14094543 C-9.5874023 15.13818006 -10.54145803 15.13541468 -11.52442455 15.1325655 C-14.7506767 15.40696562 -14.7506767 15.40696562 -19.16992188 18.50170898 Z " fill="#6263DA" transform="translate(200.169921875,117.498291015625)"/>
<path d="M0 0 C2.5625 0.3125 2.5625 0.3125 4.3125 1.375 C6.14155748 4.21003909 6.25004809 7.00050975 6.5625 10.3125 C6.8925 8.9925 7.2225 7.6725 7.5625 6.3125 C8.2225 6.3125 8.8825 6.3125 9.5625 6.3125 C10.2225 4.9925 10.8825 3.6725 11.5625 2.3125 C23.91441641 2.2893675 36.2663277 2.27158026 48.61826134 2.26068783 C54.35326272 2.255461 60.08824932 2.24836695 65.82324219 2.23706055 C71.35398123 2.22622461 76.88470603 2.22022165 82.41545486 2.21762276 C84.52944793 2.21576979 86.64344019 2.21215162 88.75742722 2.20676994 C91.70988422 2.19955017 94.66228174 2.19850946 97.61474609 2.19897461 C98.93644051 2.1935817 98.93644051 2.1935817 100.28483582 2.18807983 C106.33439568 2.19844784 106.33439568 2.19844784 108.5625 3.3125 C107.6875 7.1875 107.6875 7.1875 106.5625 8.3125 C103.64132268 8.43779188 100.74264759 8.49860672 97.82006836 8.51782227 C96.9030867 8.52772186 95.98610504 8.53762146 95.04133606 8.54782104 C91.99503201 8.57953649 88.94871233 8.60423299 85.90234375 8.62890625 C83.79626549 8.64946712 81.69019144 8.67046334 79.5841217 8.69187927 C74.02911782 8.74718957 68.47407615 8.7965592 62.91900635 8.84472656 C57.25521464 8.89487635 51.59147809 8.95059638 45.92773438 9.00585938 C34.80603666 9.11355045 23.68429114 9.21497094 12.5625 9.3125 C11.9025 10.6325 11.2425 11.9525 10.5625 13.3125 C9.9025 13.3125 9.2425 13.3125 8.5625 13.3125 C8.5625 14.6325 8.5625 15.9525 8.5625 17.3125 C9.5525 16.9825 10.5425 16.6525 11.5625 16.3125 C14.58006943 16.21558693 17.57439511 16.17611957 20.59204102 16.18310547 C21.51585571 16.18135315 22.43967041 16.17960083 23.39147949 16.17779541 C26.44980743 16.17338853 29.50807771 16.17631058 32.56640625 16.1796875 C34.68725089 16.17901418 36.80809545 16.17804393 38.92893982 16.17678833 C43.37507868 16.17531298 47.82119746 16.17746092 52.26733398 16.18212891 C57.97633491 16.18782956 63.68528886 16.18454402 69.39428806 16.17855644 C73.77361914 16.17494941 78.15293902 16.17609002 82.53227043 16.17868423 C84.63788801 16.17935293 86.7435066 16.17852708 88.849123 16.17620468 C91.78689409 16.17367547 94.72458819 16.17752244 97.66235352 16.18310547 C98.53876999 16.18108124 99.41518646 16.17905701 100.31816101 16.17697144 C106.33397085 16.19823542 106.33397085 16.19823542 108.5625 17.3125 C107.6875 21.1875 107.6875 21.1875 106.5625 22.3125 C103.84016995 22.43235389 101.14207093 22.48796178 98.41845703 22.50195312 C97.137995 22.51439308 97.137995 22.51439308 95.83166504 22.52708435 C93.97153739 22.54452611 92.11138725 22.55968151 90.25122452 22.57286072 C87.30982875 22.59382472 84.36854553 22.62085356 81.42721558 22.64953613 C75.18068665 22.7093454 68.93410567 22.76142968 62.6875 22.8125 C55.45835161 22.8716758 48.2292583 22.93397476 41.00020981 23.00437927 C38.09806824 23.03099545 35.19592132 23.05178753 32.29373169 23.0723877 C30.51759579 23.08899016 28.74146239 23.10586195 26.96533203 23.12304688 C26.15482391 23.12723129 25.3443158 23.13141571 24.50924683 23.13572693 C21.27345081 23.17205783 18.65385066 23.28204978 15.5625 24.3125 C15.5625 25.3025 15.5625 26.2925 15.5625 27.3125 C15.2325 27.9725 14.9025 28.6325 14.5625 29.3125 C45.2525 29.6425 75.9425 29.9725 107.5625 30.3125 C108.0575 32.7875 108.0575 32.7875 108.5625 35.3125 C106.66690049 37.20809951 103.89046773 36.43920631 101.36801147 36.44802856 C100.47707794 36.44600433 99.58614441 36.4439801 98.66821289 36.44189453 C97.73493668 36.44364685 96.80166046 36.44539917 95.84010315 36.44720459 C92.73843556 36.45162518 89.63682447 36.44868415 86.53515625 36.4453125 C84.38903289 36.44598554 82.2429096 36.44695556 80.0967865 36.44821167 C75.59161658 36.44968897 71.08646645 36.44753327 66.58129883 36.44287109 C60.79601241 36.43717721 55.01077242 36.44045046 49.22548771 36.44644356 C44.7912511 36.45005122 40.35702556 36.44890957 35.92278862 36.44631577 C33.78926017 36.44564689 31.65573073 36.44647356 29.52220345 36.44879532 C26.54350232 36.45132481 23.56487709 36.44747685 20.58618164 36.44189453 C19.69727234 36.44391876 18.80836304 36.44594299 17.89251709 36.44802856 C11.79102612 36.42676306 11.79102612 36.42676306 9.5625 35.3125 C8.9025 36.6325 8.2425 37.9525 7.5625 39.3125 C-0.75328947 39.3125 -0.75328947 39.3125 -4.4375 37.125 C-5.99370073 34.30438617 -5.25672998 32.33734914 -4.4375 29.3125 C-3.7775 28.3225 -3.1175 27.3325 -2.4375 26.3125 C-1.4475 26.6425 -0.4575 26.9725 0.5625 27.3125 C0.5625 26.6525 0.5625 25.9925 0.5625 25.3125 C-0.241875 25.10625 -1.04625 24.9 -1.875 24.6875 C-4.4375 23.3125 -4.4375 23.3125 -5.4375 20.375 C-5.4375 17.3125 -5.4375 17.3125 -4.125 15.5 C-2.4375 14.3125 -2.4375 14.3125 -0.4375 13.3125 C-1.283125 12.425625 -2.12875 11.53875 -3 10.625 C-5.44634821 7.70182121 -5.44634821 7.70182121 -5.375 4.5625 C-4.11343817 1.53475162 -3.31588754 0.42511379 0 0 Z " fill="#BECBF9" transform="translate(198.4375,235.6875)"/>
<path d="M0 0 C12.09113635 -0.0462659 24.18225177 -0.08183989 36.27345848 -0.10362434 C41.8874155 -0.11407784 47.50131212 -0.12826553 53.11523438 -0.15087891 C58.52926861 -0.17255154 63.94324462 -0.18455681 69.35731888 -0.18975449 C71.4266616 -0.1934603 73.49600101 -0.20069644 75.56531906 -0.21146011 C78.45556365 -0.22590091 81.3455652 -0.22798106 84.23583984 -0.22705078 C85.09826797 -0.23424133 85.96069611 -0.24143188 86.84925842 -0.24884033 C92.77189568 -0.22810432 92.77189568 -0.22810432 95 2 C95.19852102 4.70922801 95.27839477 7.29303179 95.25 10 C95.26160156 11.10601562 95.26160156 11.10601562 95.2734375 12.234375 C95.2533196 17.7466804 95.2533196 17.7466804 93 20 C90.0884779 20.19878648 87.27204967 20.27266289 84.359375 20.25878906 C83.46496704 20.2622937 82.57055908 20.26579834 81.64904785 20.26940918 C78.6826204 20.27823594 75.71643002 20.27237401 72.75 20.265625 C70.69498651 20.26697138 68.63997333 20.26891168 66.58496094 20.27142334 C62.27405775 20.27437588 57.96323733 20.27007276 53.65234375 20.26074219 C48.11701876 20.24934761 42.5818877 20.25590638 37.04656982 20.26788712 C32.80190562 20.27510219 28.55728765 20.27281941 24.31262207 20.26763153 C22.27119931 20.26629406 20.2297724 20.26794615 18.18835449 20.27259064 C15.33899763 20.27765007 12.48995812 20.26995386 9.640625 20.25878906 C8.7906897 20.26283752 7.94075439 20.26688599 7.06506348 20.27105713 C1.22852785 20.22852785 1.22852785 20.22852785 -1 18 C-1.1720611 15.29368306 -1.23239017 12.7028606 -1.1875 10 C-1.18685547 9.26265625 -1.18621094 8.5253125 -1.18554688 7.765625 C-1.14050904 2.28101809 -1.14050904 2.28101809 0 0 Z " fill="#303197" transform="translate(203,287)"/>
<path d="M0 0 C18.48 0 36.96 0 56 0 C56 0.33 56 0.66 56 1 C41.48 1 26.96 1 12 1 C12.11983432 8.19005895 12.24245849 15.37995546 12.37231445 22.56982422 C12.41564412 25.01608439 12.45732061 27.46237442 12.49731445 29.90869141 C12.55506438 33.42359418 12.61874562 36.93834691 12.68359375 40.453125 C12.70030624 41.5480426 12.71701874 42.64296021 12.73423767 43.77105713 C12.75418289 44.79181335 12.77412811 45.81256958 12.79467773 46.86425781 C12.81022202 47.76138489 12.8257663 48.65851196 12.84178162 49.58282471 C12.99194112 51.87688081 13.23764441 53.83122292 14 56 C16.91101606 57.45550803 19.49317198 57.1651099 22.74462891 57.20532227 C23.43742447 57.21522186 24.13022003 57.22512146 24.8440094 57.23532104 C27.13815878 57.26695497 29.43232889 57.29170086 31.7265625 57.31640625 C33.31554712 57.33697415 34.90452624 57.35797058 36.49349976 57.37937927 C40.67903195 57.43461691 44.86461366 57.48401869 49.05023193 57.53222656 C53.3199912 57.58242926 57.58967842 57.63812174 61.859375 57.69335938 C70.23952245 57.80096163 78.6197301 57.90240199 87 58 C86.34805664 58.45286377 85.69611328 58.90572754 85.02441406 59.37231445 C82.81113977 60.79198877 82.81113977 60.79198877 82.609375 63.04296875 C82.65578125 63.75066406 82.7021875 64.45835937 82.75 65.1875 C82.8325 66.445625 82.915 67.70375 83 69 C84.485 69.495 84.485 69.495 86 70 C86 70.66 86 71.32 86 72 C77.55013695 72.06976559 69.10039592 72.12294519 60.65031528 72.15543652 C56.7258385 72.17103726 52.80155998 72.19217207 48.87719727 72.22631836 C45.08408113 72.259113 41.2911547 72.27689498 37.49790764 72.28463173 C36.05674189 72.29013942 34.61558555 72.30089388 33.17450142 72.31719017 C15.67606641 72.50704981 15.67606641 72.50704981 8.5 67.125 C5.6987011 63.15649323 5.87635544 58.74201048 5.88647461 54.01635742 C5.88655014 52.83551071 5.88662567 51.654664 5.88670349 50.43803406 C5.89186478 49.17328751 5.89702606 47.90854095 5.90234375 46.60546875 C5.9037587 45.30297684 5.90517365 44.00048492 5.90663147 42.65852356 C5.91043645 39.20783546 5.92024936 35.75718992 5.93133545 32.30651855 C5.94159311 28.78052343 5.9461384 25.25452139 5.95117188 21.72851562 C5.96187356 14.81899301 5.97892557 7.90949855 6 1 C4.02 1 2.04 1 0 1 C0 0.67 0 0.34 0 0 Z " fill="#4747A7" transform="translate(168,318)"/>
<path d="M0 0 C1.02468384 -0.00708481 2.04936768 -0.01416962 3.10510254 -0.02146912 C4.23391342 -0.0189917 5.3627243 -0.01651428 6.52574158 -0.01396179 C8.30402847 -0.02162819 8.30402847 -0.02162819 10.11824036 -0.02944946 C13.37693411 -0.04099509 16.63547069 -0.04341401 19.89417958 -0.04088616 C22.61736086 -0.03981725 25.34051864 -0.04469845 28.06369489 -0.04949158 C34.49523477 -0.06060051 40.92671627 -0.0610183 47.35826111 -0.05497742 C53.97924899 -0.04895363 60.60002351 -0.06120459 67.22097498 -0.08254749 C72.9119931 -0.10021404 78.60294366 -0.10615639 84.29398817 -0.10290974 C87.68970399 -0.10110266 91.08526807 -0.10367394 94.48095894 -0.11762428 C98.27730166 -0.12999922 102.0731563 -0.12318863 105.86949158 -0.11161804 C106.98413284 -0.11926178 108.09877411 -0.12690552 109.24719238 -0.13478088 C116.66705629 -0.08494929 124.10420256 0.21440153 129.58799744 5.69819641 C130.36143494 6.96663391 130.36143494 6.96663391 131.15049744 8.26069641 C131.50869568 8.83916321 131.86689392 9.41763 132.23594666 10.0136261 C133.46166564 13.02524318 133.3753252 15.52964209 133.34580994 18.77632141 C133.33614197 20.65190735 133.33614197 20.65190735 133.32627869 22.56538391 C133.30114197 24.5183136 133.30114197 24.5183136 133.27549744 26.51069641 C133.266474 27.82811829 133.25745056 29.14554016 133.24815369 30.50288391 C133.22458277 33.75567103 133.19167766 37.0080923 133.15049744 40.26069641 C130.84049744 40.26069641 128.53049744 40.26069641 126.15049744 40.26069641 C125.82049744 33.00069641 125.49049744 25.74069641 125.15049744 18.26069641 C124.49049744 17.93069641 123.83049744 17.60069641 123.15049744 17.26069641 C123.15049744 16.60069641 123.15049744 15.94069641 123.15049744 15.26069641 C101.37049744 15.26069641 79.59049744 15.26069641 57.15049744 15.26069641 C57.15049744 10.97069641 57.15049744 6.68069641 57.15049744 2.26069641 C36.03049744 2.26069641 14.91049744 2.26069641 -6.84950256 2.26069641 C-4.32647028 -0.26233587 -3.49187034 0.00802268 0 0 Z " fill="#4746CB" transform="translate(192.84950256347656,117.73930358886719)"/>
<path d="M0 0 C6.27519117 6.53601818 9.10855691 13.33553703 9.4375 22.3125 C9.17183154 31.87656458 6.44643326 39.42157155 -0.21484375 46.3515625 C-7.92828501 53.4742588 -15.64160975 55.56463291 -25.890625 55.28125 C-34.32511931 54.51833092 -42.03916698 50.15141704 -47.8671875 44.04296875 C-50.96431069 40.16786006 -52.74525574 37.09488518 -53 32 C-50 34 -50 34 -49.125 36.375 C-47.64155323 39.8363758 -46.19049208 40.98961799 -43 43 C-40.07610968 43.34288103 -37.54730293 43.46951879 -34.63671875 43.390625 C-33.44874443 43.38213531 -33.44874443 43.38213531 -32.23677063 43.37347412 C-29.71971906 43.35117308 -27.20411757 43.30099139 -24.6875 43.25 C-22.97593209 43.22992675 -21.26434176 43.21167742 -19.55273438 43.1953125 C-15.36793515 43.15132925 -11.184213 43.08234769 -7 43 C-7.2288383 40.74774934 -7.48389223 38.49815183 -7.75 36.25 C-7.88921875 34.99703125 -8.0284375 33.7440625 -8.171875 32.453125 C-9.07973851 28.66750546 -9.96339322 27.35041622 -13 25 C-15.55627525 23.89790667 -15.55627525 23.89790667 -18.25 23.25 C-19.14203125 23.00765625 -20.0340625 22.7653125 -20.953125 22.515625 C-21.62859375 22.34546875 -22.3040625 22.1753125 -23 22 C-22.236875 21.4225 -21.47375 20.845 -20.6875 20.25 C-17.33081175 17.51965741 -17.33081175 17.51965741 -15 14 C-14.75944777 10.98263837 -14.82579031 8.0196346 -15 5 C-14.505 5.99 -14.505 5.99 -14 7 C-13.4740625 5.329375 -13.4740625 5.329375 -12.9375 3.625 C-11.50940759 0.27238306 -11.14686563 0.06675711 -7.5625 -1.5625 C-3.8069247 -2.023711 -3.04723981 -1.94080154 0 0 Z " fill="#3C3CB2" transform="translate(273,176)"/>
<path d="M0 0 C3.71539964 2.07323405 5.48641837 3.78836029 7.68359375 7.49609375 C9.08737035 12.58478393 9.3596592 16.24313416 7.55859375 21.24609375 C4.99038298 25.18401693 1.9413421 27.99221958 -2.31640625 30.12109375 C-8.23914632 30.67501908 -13.32555257 30.68598923 -18.31640625 27.12109375 C-22.52103551 21.66643958 -24.0941144 17.0038109 -23.31640625 10.12109375 C-21.81640625 6.62109375 -21.81640625 6.62109375 -20.31640625 4.12109375 C-19.65640625 4.12109375 -18.99640625 4.12109375 -18.31640625 4.12109375 C-18.31640625 3.46109375 -18.31640625 2.80109375 -18.31640625 2.12109375 C-12.54282707 -1.52537731 -6.4411886 -2.44395857 0 0 Z " fill="#313098" transform="translate(98.31640625,155.87890625)"/>
<path d="M0 0 C28.05 0 56.1 0 85 0 C85 0.33 85 0.66 85 1 C83.06325815 1.19517554 81.12555991 1.38087873 79.1875 1.5625 C78.10855469 1.66691406 77.02960938 1.77132813 75.91796875 1.87890625 C73 2 73 2 70 1 C70 1.66 70 2.32 70 3 C70.66 3 71.32 3 72 3 C71.4140625 9.15234375 71.4140625 9.15234375 71 11 C70.34 11.33 69.68 11.66 69 12 C69.495 12.99 69.495 12.99 70 14 C65.71 14 61.42 14 57 14 C56.505 12.515 56.505 12.515 56 11 C55.67 11.99 55.34 12.98 55 14 C52.1875 14.625 52.1875 14.625 49 15 C48.01 14.34 47.02 13.68 46 13 C46 13.66 46 14.32 46 15 C45.01 15 44.02 15 43 15 C42.67 15.66 42.34 16.32 42 17 C35.125 14.125 35.125 14.125 34 13 C33.34 13.99 32.68 14.98 32 16 C25.125 14.125 25.125 14.125 24 13 C23.74003627 11.54998009 23.54080022 10.08877907 23.375 8.625 C23.27960938 7.83351563 23.18421875 7.04203125 23.0859375 6.2265625 C23 4 23 4 24 1 C23.195625 1.165 22.39125 1.33 21.5625 1.5 C18.76822969 1.89217829 16.35684245 2.03827866 13.5625 2 C9.59097768 1.94614885 5.91257774 2.33402932 2 3 C1.34 4.65 0.68 6.3 0 8 C-0.33 8 -0.66 8 -1 8 C-1.125 2.25 -1.125 2.25 0 0 Z " fill="#5659C3" transform="translate(203,287)"/>
<path d="M0 0 C4.74028112 1.95756054 7.30240213 4.42018852 9.30859375 9.1484375 C10.62507836 14.46105981 9.63465027 19.70097536 6.859375 24.37109375 C3.39342846 28.11274058 -0.11570064 29.72641357 -5.203125 29.93359375 C-11.27903931 29.59245744 -14.43306788 27.21345801 -18.515625 22.80859375 C-20.77652795 18.02591443 -20.8179268 13.5847425 -20.140625 8.37109375 C-18.59969782 4.18641897 -16.10279976 2.54646821 -12.3515625 0.359375 C-8.01908116 -1.57722885 -4.48346902 -1.31722356 0 0 Z " fill="#1E1C69" transform="translate(108.140625,377.62890625)"/>
<path d="M0 0 C1.31698128 0.00842926 1.31698128 0.00842926 2.66056824 0.01702881 C3.58423691 0.01513046 4.50790558 0.01323212 5.45956421 0.01127625 C8.52339573 0.00756103 11.58699203 0.01828331 14.65080261 0.02947998 C16.77307609 0.03067148 18.8953501 0.03112501 21.0176239 0.03086853 C25.46976513 0.03243469 29.9218261 0.04073444 34.37394714 0.05413818 C40.0908296 0.07112819 45.80762376 0.07495259 51.5245285 0.074193 C55.90815581 0.07446448 60.29176367 0.0799422 64.67538452 0.08719444 C66.78379163 0.09038449 68.89220096 0.0923493 71.00061035 0.09308815 C73.943291 0.09524815 76.88587663 0.10398506 79.82853699 0.11468506 C80.70652451 0.11423187 81.58451202 0.11377869 82.48910522 0.11331177 C88.51559998 0.14547241 88.51559998 0.14547241 90.74455261 1.25994873 C89.86955261 5.13494873 89.86955261 5.13494873 88.74455261 6.25994873 C85.79208907 6.35521679 82.8630684 6.38547325 79.9103241 6.37347412 C78.98358887 6.37362015 78.05685364 6.37376617 77.10203552 6.37391663 C74.02321574 6.37321711 70.94445564 6.36542294 67.86564636 6.35760498 C65.73715244 6.35574094 63.60865808 6.35431697 61.48016357 6.35331726 C55.86592941 6.34949101 50.25172093 6.33965981 44.63749695 6.32861328 C38.91342008 6.31840147 33.18933908 6.31382013 27.46525574 6.30877686 C16.22501005 6.29803764 4.98478346 6.28095993 -6.25544739 6.25994873 C-6.91544739 4.93994873 -7.57544739 3.61994873 -8.25544739 2.25994873 C-5.59469835 -0.40080031 -3.61860087 0.01899163 0 0 Z " fill="#3D3FB0" transform="translate(216.2554473876953,237.74005126953125)"/>
<path d="M0 0 C0.89396484 -0.02835938 1.78792969 -0.05671875 2.70898438 -0.0859375 C6.83176564 -0.09818035 9.46319253 0.17629762 13.12890625 2.15625 C15.0625 5.5 15.0625 5.5 16.0625 19.5 C5.5025 19.5 -5.0575 19.5 -15.9375 19.5 C-15.9375 5.78418231 -15.9375 5.78418231 -12.48046875 1.8359375 C-8.45446319 -0.27910689 -4.47863327 -0.0128604 0 0 Z " fill="#C1CEF9" transform="translate(249.9375,199.5)"/>
<path d="M0 0 C4.13098667 1.74419437 6.76586028 4.11094196 9 8 C9.45920277 12.04353547 9.85226901 16.29546198 8 20 C7.34 20 6.68 20 6 20 C6 20.66 6 21.32 6 22 C5.34 22 4.68 22 4 22 C3.67 22.99 3.34 23.98 3 25 C-1.64398011 26.54799337 -6.32517708 26.49594333 -11 25 C-11 24.34 -11 23.68 -11 23 C-11.61875 22.773125 -12.2375 22.54625 -12.875 22.3125 C-15.76058871 20.53022462 -16.14672476 19.27088842 -17 16 C-17.85578343 9.36767842 -17.85578343 9.36767842 -15.7265625 5.96484375 C-10.89851811 0.23006907 -7.4276251 -0.70923504 0 0 Z " fill="#26257D" transform="translate(389,112)"/>
<path d="M0 0 C3 2 3 2 3.875 4.375 C5.36159275 7.84371642 6.79683659 8.9909371 10 11 C12.99343932 11.342908 15.6012261 11.46916655 18.58203125 11.390625 C19.39621017 11.38496521 20.2103891 11.37930542 21.04924011 11.37347412 C23.63760353 11.35116774 26.2245584 11.30098445 28.8125 11.25 C30.57224556 11.22992747 32.33201293 11.21167802 34.09179688 11.1953125 C38.39507005 11.15132207 42.6972966 11.08233627 47 11 C47 8.69 47 6.38 47 4 C48.32 5.32 49.64 6.64 51 8 C52.32 6.68 53.64 5.36 55 4 C54.34 3.67 53.68 3.34 53 3 C53.33 2.01 53.66 1.02 54 0 C56 0 58 0 60 0 C59.83471482 6.44612183 56.19748349 10.46738808 52 15 C44.62817157 21.70919216 36.94801263 23.55328606 27.109375 23.28125 C18.67488069 22.51833092 10.96083302 18.15141704 5.1328125 12.04296875 C2.03568931 8.16786006 0.25474426 5.09488518 0 0 Z " fill="#2B2B88" transform="translate(220,208)"/>
<path d="M0 0 C3.249376 2.437032 5.77260422 5.07233349 7 9 C6.67434191 13.12500253 5.17486262 16.50468508 3 20 C-0.08505227 21.97100562 -1.82921053 22.00914944 -5.5 21.8125 C-9.68904948 20.84004209 -12.68401283 19.75464956 -15.3125 16.25 C-16.63780889 11.91262545 -16.60880922 8.30459119 -14.6875 4.1875 C-10.74390742 -0.92456445 -5.99401106 -0.94793466 0 0 Z " fill="#161459" transform="translate(441,269)"/>
<path d="M0 0 C1.02577148 0.00676758 1.02577148 0.00676758 2.07226562 0.01367188 C3.73571604 0.0253044 5.3991205 0.04323306 7.0625 0.0625 C7.28384176 2.18618444 7.48920007 4.31154024 7.6875 6.4375 C7.86152344 8.21253906 7.86152344 8.21253906 8.0390625 10.0234375 C8.04679687 11.02632813 8.05453125 12.02921875 8.0625 13.0625 C7.4025 13.7225 6.7425 14.3825 6.0625 15.0625 C6.0625 15.7225 6.0625 16.3825 6.0625 17.0625 C-1.9375 17.0625 -9.9375 17.0625 -17.9375 17.0625 C-18.54882684 5.60578216 -18.54882684 5.60578216 -14.9375 1.0625 C-9.94783737 0.02714501 -5.08209723 -0.04497431 0 0 Z " fill="#4747CB" transform="translate(219.9375,287.9375)"/>
<path d="M0 0 C3.58552881 1.63687185 4.79315055 2.68972583 7 6 C7.43145362 11.35002483 7.45651329 14.64735364 4 19 C-0.22181892 21.81454595 -4.04030209 21.80684081 -9 21 C-12.0625 18.5625 -12.0625 18.5625 -14 16 C-14.33 15.67 -14.66 15.34 -15 15 C-15.58883249 7.93401015 -15.58883249 7.93401015 -13.1875 4.125 C-9.00261316 0.05968136 -5.6881854 -0.73324265 0 0 Z " fill="#302F94" transform="translate(264,75)"/>
<path d="M0 0 C31.35 0 62.7 0 95 0 C95 0.99 95 1.98 95 3 C91.06335428 4.31221524 87.31677809 4.13088917 83.21411133 4.11352539 C81.86746147 4.11374443 81.86746147 4.11374443 80.49360657 4.1139679 C77.52305697 4.11327064 74.55256991 4.10548697 71.58203125 4.09765625 C69.52365656 4.09579141 67.46528142 4.09436782 65.40690613 4.09336853 C59.98669206 4.08954859 54.56650476 4.07972273 49.14630127 4.06866455 C43.61641807 4.05843921 38.08653055 4.0538685 32.55664062 4.04882812 C21.70441532 4.03810003 10.85220989 4.02102984 0 4 C0 2.68 0 1.36 0 0 Z " fill="#3B3CAF" transform="translate(209,253)"/>
<path d="M0 0 C9.58102163 -0.02338141 19.16203313 -0.04104446 28.74307728 -0.05181217 C33.19404434 -0.05698544 37.6449916 -0.06397936 42.09594727 -0.07543945 C46.40780005 -0.08646931 50.71963404 -0.09231841 55.03149986 -0.09487724 C56.65974917 -0.09669592 58.2879977 -0.10024499 59.91623878 -0.10573006 C71.64316664 -0.14358912 83.29514729 0.28127248 95 1 C95.495 1.99 95.495 1.99 96 3 C92.6385445 4.68072775 88.84012532 4.12876829 85.14404297 4.11352539 C84.22691528 4.11367142 83.3097876 4.11381744 82.36486816 4.1139679 C79.32395081 4.11326948 76.2830942 4.1054804 73.2421875 4.09765625 C71.13754307 4.09579182 69.0328982 4.09436803 66.92825317 4.09336853 C61.38143725 4.08954535 55.8346474 4.07971674 50.2878418 4.06866455 C44.6307002 4.05844616 38.97355441 4.05386999 33.31640625 4.04882812 C22.21092603 4.03809431 11.10546518 4.02102026 0 4 C0 2.68 0 1.36 0 0 Z " fill="#3F3FB9" transform="translate(209,267)"/>
<path d="M0 0 C15.84 0 31.68 0 48 0 C48 0.33 48 0.66 48 1 C46.06325815 1.19517554 44.12555991 1.38087873 42.1875 1.5625 C41.10855469 1.66691406 40.02960938 1.77132813 38.91796875 1.87890625 C36 2 36 2 33 1 C33 1.66 33 2.32 33 3 C33.66 3 34.32 3 35 3 C34.4140625 9.15234375 34.4140625 9.15234375 34 11 C33.34 11.33 32.68 11.66 32 12 C32.495 12.99 32.495 12.99 33 14 C28.71 14 24.42 14 20 14 C19.67 13.01 19.34 12.02 19 11 C18.67 11.99 18.34 12.98 18 14 C15.1875 14.625 15.1875 14.625 12 15 C11.01 14.34 10.02 13.68 9 13 C8.70703125 10.6171875 8.70703125 10.6171875 8.8125 7.875 C8.83957031 6.96492188 8.86664063 6.05484375 8.89453125 5.1171875 C8.92933594 4.41851562 8.96414062 3.71984375 9 3 C9.99 3 10.98 3 12 3 C12 2.34 12 1.68 12 1 C8.37 1.33 4.74 1.66 1 2 C0.67 1.34 0.34 0.68 0 0 Z " fill="#4346B3" transform="translate(240,287)"/>
<path d="M0 0 C0.33 0 0.66 0 1 0 C1 1.65 1 3.3 1 5 C2.3303125 4.7215625 2.3303125 4.7215625 3.6875 4.4375 C6.85178811 4.01957516 8.94839642 4.19222258 12 5 C11.01 5.66 10.02 6.32 9 7 C8.34 7.66 7.68 8.32 7 9 C7 9.33 7 9.66 7 10 C-6.72086727 10.95096181 -20.37481996 11.12244074 -34.125 11.0625 C-36.1627593 11.05746809 -38.20051982 11.05290822 -40.23828125 11.04882812 C-45.15888519 11.03797224 -50.07942848 11.02080377 -55 11 C-55 10.01 -55 9.02 -55 8 C-52.50104795 8 -50.04464644 8.0848512 -47.55078125 8.21875 C-46.70322266 8.26386719 -45.85566406 8.30898438 -44.98242188 8.35546875 C-44.10134766 8.40316406 -43.22027344 8.45085937 -42.3125 8.5 C-41.41982422 8.54769531 -40.52714844 8.59539062 -39.60742188 8.64453125 C-37.40490896 8.76231269 -35.20243811 8.88082937 -33 9 C-33.33 8.01 -33.66 7.02 -34 6 C-30.42355152 4.7619986 -27.66305234 5.25073929 -24 6 C-23.34 5.01 -22.68 4.02 -22 3 C-21.34 3.66 -20.68 4.32 -20 5 C-16.30641529 6.52561108 -13.81970016 7.46911544 -10 6 C-10 5.34 -10 4.68 -10 4 C-7.03 4.33 -4.06 4.66 -1 5 C-1 4.34 -1 3.68 -1 3 C-2.65 3 -4.3 3 -6 3 C-6 2.67 -6 2.34 -6 2 C-4.02 2 -2.04 2 0 2 C0 1.34 0 0.68 0 0 Z " fill="#34379E" transform="translate(259,296)"/>
<path d="M0 0 C1.48696545 0.01509033 2.9739459 0.02877096 4.4609375 0.04101562 C8.05761014 0.07363961 11.65370473 0.1251753 15.25 0.1875 C15.25 0.5175 15.25 0.8475 15.25 1.1875 C14.11820312 1.24808594 12.98640625 1.30867188 11.8203125 1.37109375 C10.33852855 1.45549917 8.8567584 1.54014717 7.375 1.625 C6.25544922 1.68397461 6.25544922 1.68397461 5.11328125 1.74414062 C1.05013136 1.90323624 1.05013136 1.90323624 -2.75 3.1875 C-2.75 2.5275 -2.75 1.8675 -2.75 1.1875 C-3.61625 1.3525 -4.4825 1.5175 -5.375 1.6875 C-8.75 2.1875 -8.75 2.1875 -11.44140625 2.08203125 C-15.57312236 2.21373885 -19.12309162 3.18542223 -23.0625 4.375 C-23.81072021 4.59696045 -24.55894043 4.8189209 -25.32983398 5.04760742 C-30.88638444 6.76423095 -35.89745593 8.93864571 -40.75 12.1875 C-40.75 13.1775 -40.75 14.1675 -40.75 15.1875 C-41.74 15.1875 -42.73 15.1875 -43.75 15.1875 C-44.08 14.5275 -44.41 13.8675 -44.75 13.1875 C-45.4925 13.93 -46.235 14.6725 -47 15.4375 C-48.60430194 17.04180194 -50.22284124 18.63252705 -51.875 20.1875 C-53.9179348 22.36663046 -55.28550801 24.59135511 -56.75 27.1875 C-57.41 28.1775 -58.07 29.1675 -58.75 30.1875 C-58.42 30.8475 -58.09 31.5075 -57.75 32.1875 C-58.41 32.8475 -59.07 33.5075 -59.75 34.1875 C-60.41 34.1875 -61.07 34.1875 -61.75 34.1875 C-64.24276563 36.68026563 -64.78922708 38.82479479 -65.75 42.1875 C-65.75 43.1775 -65.75 44.1675 -65.75 45.1875 C-67.16182693 49.03793707 -69.81352675 51.40557798 -72.75 54.1875 C-72.17432346 49.36805408 -70.70879267 45.34128156 -68.625 41 C-68.31151611 40.34362549 -67.99803223 39.68725098 -67.67504883 39.01098633 C-59.77520215 22.79426329 -49.75629945 11.3757447 -32.8125 4.5 C-31.46200887 4.0512826 -30.10710612 3.61579499 -28.75 3.1875 C-27.94715576 2.93081543 -27.14431152 2.67413086 -26.31713867 2.40966797 C-17.5018453 -0.10854397 -9.06415936 -0.16193273 0 0 Z " fill="#323090" transform="translate(192.75,100.8125)"/>
<path d="M0 0 C3.1822638 2.40437709 4.69832768 4.21230005 6.125 7.9375 C5.98265735 11.42489494 5.07444673 13.3094962 2.66015625 15.8515625 C0.0980207 17.62395745 -1.992232 17.83222775 -5.05859375 17.58203125 C-8.8001617 16.4603137 -10.14799711 14.28581158 -12 11 C-12.14971147 6.65836732 -11.72194213 4.80444981 -8.8125 1.5625 C-5.43724821 -0.31263988 -3.7992366 -0.71235686 0 0 Z " fill="#C4D0FB" transform="translate(253,179)"/>
<path d="M0 0 C31.68 0 63.36 0 96 0 C96.495 2.475 96.495 2.475 97 5 C95.10022912 6.89977088 92.31060935 6.12012643 89.78329468 6.12442017 C88.88921906 6.12082489 87.99514343 6.11722961 87.07397461 6.11352539 C86.13748581 6.11367142 85.20099701 6.11381744 84.23612976 6.1139679 C81.12484461 6.11326837 78.01361851 6.10547415 74.90234375 6.09765625 C72.75142957 6.09579221 70.60051497 6.09436824 68.44960022 6.09336853 C62.77618242 6.08954225 57.10279005 6.07971102 51.42938232 6.06866455 C45.64498234 6.0584528 39.86057827 6.05387142 34.07617188 6.04882812 C22.71743672 6.03808885 11.35872047 6.02101111 0 6 C0 5.67 0 5.34 0 5 C1.16289047 4.98969254 2.32578094 4.97938507 3.52391052 4.96876526 C14.45774909 4.87120967 25.39152846 4.768493 36.32527065 4.66066074 C41.9470513 4.60538443 47.56883709 4.55195704 53.19067383 4.50268555 C58.61122899 4.45511128 64.0317187 4.40277126 69.45219612 4.34705925 C71.52513064 4.32660415 73.59808314 4.30789642 75.67104912 4.29092598 C78.56388758 4.26695154 81.45660109 4.23688787 84.34936523 4.20532227 C85.21538864 4.1995668 86.08141205 4.19381134 86.97367859 4.18788147 C90.79681743 4.51074801 90.79681743 4.51074801 94 3 C81.57517764 2.26592292 69.18330947 1.81777999 56.73828125 1.68359375 C55.08391408 1.66293404 53.42955111 1.64193591 51.77519226 1.62062073 C47.49290443 1.56632789 43.2105767 1.51652354 38.92822266 1.46777344 C34.52958777 1.41686521 30.13100835 1.36154711 25.73242188 1.30664062 C17.15499528 1.20020034 8.57752122 1.09851918 0 1 C0 0.67 0 0.34 0 0 Z " fill="#5B60BF" transform="translate(210,266)"/>
<path d="M0 0 C5.4175 1.576 5.4175 1.576 7.4375 4 C7.89373968 8.18219705 7.87790812 11.47496605 5.4375 15 C1.98479316 16.72635342 -1.78679757 16.48406441 -5.5625 16 C-8.50849124 13.76818846 -8.53154193 12.21283671 -9.0625 8.5625 C-8.5625 5 -8.5625 5 -6.5 2 C-3.5625 0 -3.5625 0 0 0 Z " fill="#333198" transform="translate(58.5625,162)"/>
<path d="M0 0 C0.66 0.33 1.32 0.66 2 1 C2 1.99 2 2.98 2 4 C2.66 4.33 3.32 4.66 4 5 C4.66 4.67 5.32 4.34 6 4 C7.99960012 3.960008 10.00047242 3.95653201 12 4 C11.25 6.375 11.25 6.375 10 9 C9.319375 9.33 8.63875 9.66 7.9375 10 C7.298125 10.33 6.65875 10.66 6 11 C5.33652369 13.48400985 5.33652369 13.48400985 5 16 C4.34 16.66 3.68 17.32 3 18 C-5.31578947 18 -5.31578947 18 -9 15.8125 C-10.55620073 12.99188617 -9.81922998 11.02484914 -9 8 C-8.34 7.01 -7.68 6.02 -7 5 C-6.01 5.33 -5.02 5.66 -4 6 C-4 5.34 -4 4.68 -4 4 C-4.66 3.67 -5.32 3.34 -6 3 C-5.195625 2.690625 -4.39125 2.38125 -3.5625 2.0625 C-1.10919595 1.23664655 -1.10919595 1.23664655 0 0 Z " fill="#BACAF9" transform="translate(203,257)"/>
<path d="M0 0 C12.35191641 -0.0231325 24.7038277 -0.04091974 37.05576134 -0.05181217 C42.79076272 -0.057039 48.52574932 -0.06413305 54.26074219 -0.07543945 C59.79148123 -0.08627539 65.32220603 -0.09227835 70.85295486 -0.09487724 C72.96694793 -0.09673021 75.08094019 -0.10034838 77.19492722 -0.10573006 C80.14738422 -0.11294983 83.09978174 -0.11399054 86.05224609 -0.11352539 C87.37394051 -0.1189183 87.37394051 -0.1189183 88.72233582 -0.12442017 C94.77189568 -0.11405216 94.77189568 -0.11405216 97 1 C96.125 4.875 96.125 4.875 95 6 C92.01701786 6.0952822 89.05723655 6.12552175 86.07397461 6.11352539 C85.13748581 6.11367142 84.20099701 6.11381744 83.23612976 6.1139679 C80.12484461 6.11326837 77.01361851 6.10547415 73.90234375 6.09765625 C71.75142957 6.09579221 69.60051497 6.09436824 67.44960022 6.09336853 C61.77618242 6.08954225 56.10279005 6.07971102 50.42938232 6.06866455 C44.64498234 6.0584528 38.86057827 6.05387142 33.07617188 6.04882812 C21.71743672 6.03808885 10.35872047 6.02101111 -1 6 C-1 5.67 -1 5.34 -1 5 C30.35 4.67 61.7 4.34 94 4 C94 3.01 94 2.02 94 1 C62.98 1 31.96 1 0 1 C0 0.67 0 0.34 0 0 Z " fill="#5A60C2" transform="translate(210,252)"/>
<path d="M0 0 C0.61875 0.165 1.2375 0.33 1.875 0.5 C6.25470729 1.20075317 10.57428989 1.07734251 15 1 C15 1.66 15 2.32 15 3 C14.01 3 13.02 3 12 3 C12 6.96 12 10.92 12 15 C11.01 15 10.02 15 9 15 C8.67 15.66 8.34 16.32 8 17 C1.125 14.125 1.125 14.125 0 13 C-0.04080783 11.00041636 -0.04254356 8.99954746 0 7 C2.31 6.34 4.62 5.68 7 5 C4.69 5 2.38 5 0 5 C0 3.35 0 1.7 0 0 Z " fill="#4443C1" transform="translate(237,287)"/>
<path d="M0 0 C0.680625 0.433125 1.36125 0.86625 2.0625 1.3125 C1.7325 1.9725 1.4025 2.6325 1.0625 3.3125 C-0.5875 3.3125 -2.2375 3.3125 -3.9375 3.3125 C-4.2675 3.9725 -4.5975 4.6325 -4.9375 5.3125 C-5.618125 4.075 -5.618125 4.075 -6.3125 2.8125 C-6.84875 1.9875 -7.385 1.1625 -7.9375 0.3125 C-10.0120356 0.1634288 -10.0120356 0.1634288 -11.9375 1.3125 C-11.9375 -0.0075 -11.9375 -1.3275 -11.9375 -2.6875 C-13.113125 -2.5225 -14.28875 -2.3575 -15.5 -2.1875 C-18.42179816 -1.79378252 -20.75858397 -1.74134157 -23.75 -1.9375 C-24.801875 -1.855 -25.85375 -1.7725 -26.9375 -1.6875 C-28.94614359 0.6851974 -28.94614359 0.6851974 -29.9375 3.3125 C-32.9075 2.8175 -32.9075 2.8175 -35.9375 2.3125 C-36.2675 4.2925 -36.5975 6.2725 -36.9375 8.3125 C-37.9275 8.3125 -38.9175 8.3125 -39.9375 8.3125 C-40.9275 9.7975 -40.9275 9.7975 -41.9375 11.3125 C-43.2575 10.9825 -44.5775 10.6525 -45.9375 10.3125 C-33.78577804 -5.13968966 -17.47668187 -10.03979597 0 0 Z " fill="#5152D0" transform="translate(267.9375,171.6875)"/>
<path d="M0 0 C12.35191641 -0.0231325 24.7038277 -0.04091974 37.05576134 -0.05181217 C42.79076272 -0.057039 48.52574932 -0.06413305 54.26074219 -0.07543945 C59.79148123 -0.08627539 65.32220603 -0.09227835 70.85295486 -0.09487724 C72.96694793 -0.09673021 75.08094019 -0.10034838 77.19492722 -0.10573006 C80.14738422 -0.11294983 83.09978174 -0.11399054 86.05224609 -0.11352539 C87.37394051 -0.1189183 87.37394051 -0.1189183 88.72233582 -0.12442017 C94.77189568 -0.11405216 94.77189568 -0.11405216 97 1 C96.125 4.875 96.125 4.875 95 6 C93.31198015 6.09353163 91.62004793 6.11744791 89.92944336 6.11352539 C88.84839828 6.11344986 87.76735321 6.11337433 86.65354919 6.11329651 C84.889515 6.10555458 84.889515 6.10555458 83.08984375 6.09765625 C81.89267227 6.0962413 80.69550079 6.09482635 79.46205139 6.09336853 C75.62050934 6.08774979 71.77902457 6.07519411 67.9375 6.0625 C65.34049563 6.05748741 62.74349035 6.05292409 60.14648438 6.04882812 C53.76430321 6.03777427 47.3821557 6.02101792 41 6 C41 5.67 41 5.34 41 5 C58.49 4.67 75.98 4.34 94 4 C90.95208239 0.95208239 87.4187659 1.69151202 83.32763672 1.68115234 C82.43001617 1.67110672 81.53239563 1.6610611 80.60757446 1.65071106 C77.63161884 1.61974525 74.65575371 1.60280683 71.6796875 1.5859375 C69.61987522 1.56723662 67.56007069 1.54766403 65.50027466 1.5272522 C60.07188473 1.47581087 54.64346992 1.4362495 49.21496582 1.39910889 C43.6784036 1.3591443 38.1419459 1.30801764 32.60546875 1.2578125 C21.73705246 1.16091119 10.86857732 1.07655203 0 1 C0 0.67 0 0.34 0 0 Z " fill="#5D62C6" transform="translate(210,238)"/>
<path d="M0 0 C0.66 0 1.32 0 2 0 C1.52996214 4.83367288 0.36716198 7.2977014 -2.8125 10.9375 C-5.23781033 13.80651719 -7.40898039 16.46808732 -9.125 19.8125 C-10.91178708 22.85003804 -12.61063399 24.51206317 -15.375 26.640625 C-17.90553216 28.75751248 -19.94284648 31.25227601 -22.07421875 33.76171875 C-24.19941315 36.23177228 -26.41081163 38.60955782 -28.625 41 C-32.33565086 45.09757343 -35.25094809 49.21132894 -38 54 C-37.34 54.33 -36.68 54.66 -36 55 C-36.99 55.66 -37.98 56.32 -39 57 C-40.01187895 58.65948148 -41.0126546 60.32580562 -42 62 C-42.99 62.495 -42.99 62.495 -44 63 C-42.04841025 50.20120208 -30.55221171 39.40068326 -21.99951172 30.34057617 C-19.17108811 27.41142274 -19.17108811 27.41142274 -17 24 C-16.34 24 -15.68 24 -15 24 C-15 23.34 -15 22.68 -15 22 C-14.34 22 -13.68 22 -13 22 C-12.67 21.01 -12.34 20.02 -12 19 C-11.34 19 -10.68 19 -10 19 C-9.9175 18.47664063 -9.835 17.95328125 -9.75 17.4140625 C-8.71109735 14.07009459 -6.86972929 11.30380672 -5 8.375 C-2.36086671 4.26747193 -2.36086671 4.26747193 0 0 Z " fill="#2B2881" transform="translate(108,185)"/>
<path d="M0 0 C0 3.14535949 -0.10496314 6.27460661 -0.21875 9.41796875 C-0.26386719 10.67158203 -0.30898437 11.92519531 -0.35546875 13.21679688 C-0.40316406 14.52712891 -0.45085937 15.83746094 -0.5 17.1875 C-0.54822626 18.52278468 -0.59640391 19.85807112 -0.64453125 21.19335938 C-0.762542 24.4622572 -0.8810517 27.73113618 -1 31 C-1.62140869 31.12117188 -2.24281738 31.24234375 -2.88305664 31.3671875 C-3.69637451 31.53476563 -4.50969238 31.70234375 -5.34765625 31.875 C-6.15468994 32.03742188 -6.96172363 32.19984375 -7.79321289 32.3671875 C-10.72720124 33.20853032 -12.14196865 34.62171987 -14 37 C-14.66 37.66 -15.32 38.32 -16 39 C-15.43393721 34.30976546 -14.81462495 29.65499974 -14 25 C-11.36 25 -8.72 25 -6 25 C-6 25.66 -6 26.32 -6 27 C-5.34 26.67 -4.68 26.34 -4 26 C-3.56240072 23.62499123 -3.56240072 23.62499123 -3.4375 20.75 C-3.36273438 19.67621094 -3.28796875 18.60242188 -3.2109375 17.49609375 C-3.06718132 15.11346811 -2.92668959 12.73064378 -2.7890625 10.34765625 C-2.71429688 9.18105469 -2.63953125 8.01445312 -2.5625 6.8125 C-2.47162109 5.18248047 -2.47162109 5.18248047 -2.37890625 3.51953125 C-2.25386719 2.68808594 -2.12882813 1.85664063 -2 1 C-1.34 0.67 -0.68 0.34 0 0 Z " fill="#32319D" transform="translate(175,127)"/>
<path d="M0 0 C18.48 0 36.96 0 56 0 C56 0.33 56 0.66 56 1 C54.02 1 52.04 1 50 1 C50 7.6 50 14.2 50 21 C47.54608431 17.31912647 47.77197241 14.55644412 47.875 10.3125 C47.88402344 9.61060547 47.89304687 8.90871094 47.90234375 8.18554688 C47.92586296 6.45688475 47.96173287 4.72839855 48 3 C47.01 3.33 46.02 3.66 45 4 C44.67 11.26 44.34 18.52 44 26 C43.67 26 43.34 26 43 26 C43 18.08 43 10.16 43 2 C28.81 1.67 14.62 1.34 0 1 C0 0.67 0 0.34 0 0 Z " fill="#4A4EA0" transform="translate(276,318)"/>
<path d="M0 0 C2.31 0.66 4.62 1.32 7 2 C6.06558465 3.27310312 5.12732889 4.543388 4.1875 5.8125 C3.66542969 6.52019531 3.14335937 7.22789062 2.60546875 7.95703125 C1.16871123 9.78531393 -0.31815763 11.39896688 -2 13 C-5.44428265 11.55218207 -7.36130962 9.72305391 -9.75 6.875 C-10.36359375 6.15054687 -10.9771875 5.42609375 -11.609375 4.6796875 C-12.06828125 4.12539063 -12.5271875 3.57109375 -13 3 C-9.25712373 0.86818786 -7.21015871 1.04314575 -3 2 C-3 2.66 -3 3.32 -3 4 C-1.68 4.33 -0.36 4.66 1 5 C1 4.34 1 3.68 1 3 C0.34 2.67 -0.32 2.34 -1 2 C-0.67 1.34 -0.34 0.68 0 0 Z M-4 4 C-3 6 -3 6 -3 6 Z " fill="#B1C1F7" transform="translate(253,336)"/>
<path d="M0 0 C9.24 0 18.48 0 28 0 C27.34 1.32 26.68 2.64 26 4 C17.42 4 8.84 4 0 4 C0 2.68 0 1.36 0 0 Z " fill="#2E2F8F" transform="translate(209,267)"/>
<path d="M0 0 C3 1 3 1 5 3 C5.22705078 5.33837891 5.22705078 5.33837891 5.1953125 8.2265625 C5.18886719 9.2578125 5.18242187 10.2890625 5.17578125 11.3515625 C5.15902344 12.43179688 5.14226562 13.51203125 5.125 14.625 C5.11597656 15.71296875 5.10695313 16.8009375 5.09765625 17.921875 C5.07403409 20.61480152 5.04109556 23.30729255 5 26 C5.99 26.33 6.98 26.66 8 27 C7.33333333 28.33333333 6.66666667 29.66666667 6 31 C6.66 31 7.32 31 8 31 C8.66 30.01 9.32 29.02 10 28 C10.4125 28.598125 10.825 29.19625 11.25 29.8125 C14.02861307 33.28576633 16.58894447 35.21231151 21 36 C19.25 39.875 19.25 39.875 17 41 C16.608125 40.21625 16.21625 39.4325 15.8125 38.625 C13.68809461 35.54827495 12.54983762 34.99065236 9 34 C7.00196454 33.65508636 5.00212229 33.32033957 3 33 C2.98018066 32.17798096 2.96036133 31.35596191 2.93994141 30.5090332 C2.84455397 26.77653874 2.73492911 23.0445933 2.625 19.3125 C2.5940625 18.01892578 2.563125 16.72535156 2.53125 15.39257812 C2.49257813 14.14541016 2.45390625 12.89824219 2.4140625 11.61328125 C2.3826416 10.46641846 2.3512207 9.31955566 2.31884766 8.13793945 C2.00576348 5.05672128 1.30329197 2.7917886 0 0 Z " fill="#2B2A91" transform="translate(323,125)"/>
<path d="M0 0 C0.66 0.33 1.32 0.66 2 1 C2.625 3.0625 2.625 3.0625 3 5 C-3.86309609 8.93208964 -10.7048283 8.33973331 -18.4375 8.1875 C-19.74138672 8.17396484 -21.04527344 8.16042969 -22.38867188 8.14648438 C-25.59287622 8.11127334 -28.79622105 8.06202094 -32 8 C-32 7.01 -32 6.02 -32 5 C-29.50104795 5 -27.04464644 5.0848512 -24.55078125 5.21875 C-23.70322266 5.26386719 -22.85566406 5.30898438 -21.98242188 5.35546875 C-21.10134766 5.40316406 -20.22027344 5.45085937 -19.3125 5.5 C-18.41982422 5.54769531 -17.52714844 5.59539062 -16.60742188 5.64453125 C-14.40490896 5.76231269 -12.20243811 5.88082937 -10 6 C-10.33 5.01 -10.66 4.02 -11 3 C-7.42355152 1.7619986 -4.66305234 2.25073929 -1 3 C-0.67 2.01 -0.34 1.02 0 0 Z " fill="#3C3EAE" transform="translate(236,299)"/>
<path d="M0 0 C2.29013653 3.4352048 2.17842973 4.985331 2 9 C1.34 9 0.68 9 0 9 C0 9.66 0 10.32 0 11 C-2.31 11 -4.62 11 -7 11 C-7 10.34 -7 9.68 -7 9 C-7.66 9 -8.32 9 -9 9 C-9.36 3.6 -9.36 3.6 -7.875 1.125 C-5.13083761 -0.52149743 -3.1305429 -0.39964378 0 0 Z " fill="#1A1961" transform="translate(121,413)"/>
<path d="M0 0 C-0.33 0.66 -0.66 1.32 -1 2 C-4.92897699 2 -8.85720218 1.95144844 -12.78588867 1.90820312 C-13.68365524 1.89844955 -14.58142181 1.88869598 -15.50639343 1.87864685 C-18.47692024 1.84633578 -21.44744448 1.81379366 -24.41796875 1.78125 C-26.47634364 1.75881555 -28.53471868 1.73639549 -30.59309387 1.71398926 C-36.01329707 1.65494944 -41.43349811 1.59571381 -46.85369873 1.53643799 C-52.38358433 1.4759971 -57.91347193 1.41574058 -63.44335938 1.35546875 C-74.2955749 1.23716006 -85.14778815 1.11864458 -96 1 C-96 0.67 -96 0.34 -96 0 C-83.92618748 -0.15371661 -71.85232104 -0.30189831 -59.77835369 -0.4429636 C-54.17226625 -0.50863692 -48.56621565 -0.57623519 -42.96020508 -0.64819336 C-37.55270301 -0.71753333 -32.14516266 -0.7818682 -26.73755836 -0.84269524 C-24.67182048 -0.86681853 -22.60610305 -0.89276222 -20.540411 -0.92053413 C-17.65286838 -0.95904797 -14.76532163 -0.9911583 -11.87768555 -1.02172852 C-10.58943626 -1.04114754 -10.58943626 -1.04114754 -9.27516174 -1.06095886 C-5.91814156 -1.09100018 -3.20892863 -1.06964288 0 0 Z " fill="#9AA5F9" transform="translate(300,286)"/>
<path d="M0 0 C0.82757813 0.69029297 0.82757813 0.69029297 1.671875 1.39453125 C-9.328125 1.39453125 -9.328125 1.39453125 -11.328125 0.39453125 C-10.998125 0.06453125 -10.668125 -0.26546875 -10.328125 -0.60546875 C-19.56449685 -3.62505186 -28.13717314 -2.24314048 -37.4140625 0.05078125 C-39.91213228 0.49941419 -41.92674283 0.16917066 -44.328125 -0.60546875 C-33.82103379 -7.61019622 -10.34406225 -7.13323756 0 0 Z " fill="#29277A" transform="translate(334.328125,101.60546875)"/>
<path d="M0 0 C2.0625 0.4375 2.0625 0.4375 4 1 C4 1.99 4 2.98 4 4 C3.34 4 2.68 4 2 4 C2.7763932 7.0745356 2.7763932 7.0745356 5 9 C3.35 9 1.7 9 0 9 C-0.33 8.01 -0.66 7.02 -1 6 C-1.33 6.99 -1.66 7.98 -2 9 C-4.875 9.625 -4.875 9.625 -8 10 C-10 8 -10 8 -10.25 5.5 C-10 3 -10 3 -8 1 C-5.66702567 0.95907063 -3.33294775 0.95758277 -1 1 C-0.67 0.67 -0.34 0.34 0 0 Z " fill="#B0B9F1" transform="translate(260,292)"/>
<path d="M0 0 C-0.99 1.485 -0.99 1.485 -2 3 C-0.02 2.34 1.96 1.68 4 1 C4.33 1.66 4.66 2.32 5 3 C5.69867188 2.97679687 6.39734375 2.95359375 7.1171875 2.9296875 C8.48230469 2.90261719 8.48230469 2.90261719 9.875 2.875 C11.23238281 2.84019531 11.23238281 2.84019531 12.6171875 2.8046875 C15 3 15 3 17 5 C2.81 5 -11.38 5 -26 5 C-26 4.67 -26 4.34 -26 4 C-24.80761719 3.96261719 -23.61523438 3.92523438 -22.38671875 3.88671875 C-20.820281 3.82105968 -19.25387616 3.75461232 -17.6875 3.6875 C-16.90181641 3.66494141 -16.11613281 3.64238281 -15.30664062 3.61914062 C-14.54931641 3.58369141 -13.79199219 3.54824219 -13.01171875 3.51171875 C-12.31522217 3.48553467 -11.61872559 3.45935059 -10.90112305 3.43237305 C-8.48840169 2.88364703 -7.66859193 1.77746861 -6 0 C-3 -1 -3 -1 0 0 Z " fill="#2A2E8A" transform="translate(274,302)"/>
<path d="M0 0 C1.875 1.1875 1.875 1.1875 3 3 C2.75546876 6.34192692 2.39456443 7.60543557 0 10 C-2.83386167 10.3633156 -4.40522151 10.3568671 -6.875 8.875 C-8 7 -8 7 -7.8125 3.875 C-7.544375 2.92625 -7.27625 1.9775 -7 1 C-4.45132831 -0.27433584 -2.82594567 -0.27570202 0 0 Z " fill="#4F51C2" transform="translate(201,264)"/>
<path d="M0 0 C1.875 1.75 1.875 1.75 3 4 C2.73495121 7.00388632 2.16695725 7.83304275 0 10 C-3.625 9.625 -3.625 9.625 -7 9 C-8.33157895 3.55263158 -8.33157895 3.55263158 -6.875 1.125 C-4.34227807 -0.39463316 -2.9039635 -0.50819361 0 0 Z " fill="#3739A0" transform="translate(201,250)"/>
<path d="M0 0 C1.875 1.1875 1.875 1.1875 3 3 C2.75546876 6.34192692 2.39456443 7.60543557 0 10 C-3.625 9.625 -3.625 9.625 -7 9 C-8.33157895 3.55263158 -8.33157895 3.55263158 -6.875 1.125 C-4.36737712 -0.37957373 -2.87879197 -0.4318188 0 0 Z " fill="#4C4FB9" transform="translate(201,236)"/>
<path d="M0 0 C2.4375 0.8125 2.4375 0.8125 4.4375 2.8125 C4.10778521 6.10964793 3.8148161 7.4351839 1.4375 9.8125 C-1.6875 9.4375 -1.6875 9.4375 -4.5625 8.8125 C-5.89091008 3.37809513 -5.89091008 3.37809513 -4.4375 0.875 C-2.5625 -0.1875 -2.5625 -0.1875 0 0 Z " fill="#252476" transform="translate(404.5625,107.1875)"/>
<path d="M0 0 C0.33 0 0.66 0 1 0 C1 7.59 1 15.18 1 23 C-1.31 23 -3.62 23 -6 23 C-6 16.4 -6 9.8 -6 3 C-2.59899252 7.53467664 -2.66086884 8.7912782 -2.8125 14.25 C-2.83957031 15.51328125 -2.86664063 16.7765625 -2.89453125 18.078125 C-2.92933594 19.04234375 -2.96414063 20.0065625 -3 21 C-2.01 21 -1.02 21 0 21 C0 14.07 0 7.14 0 0 Z " fill="#3F40B3" transform="translate(325,135)"/>
<path d="M0 0 C0.66 0 1.32 0 2 0 C2 3.63 2 7.26 2 11 C-0.875 11.625 -0.875 11.625 -4 12 C-6 10 -6 10 -6.1875 6.9375 C-6 4 -6 4 -5 3 C-3.33382885 2.95936168 -1.66611905 2.957279 0 3 C0 2.01 0 1.02 0 0 Z " fill="#9FA7E1" transform="translate(233,290)"/>
<path d="M0 0 C0.33 0 0.66 0 1 0 C1.049467 5.48094366 1.0857514 10.96175713 1.10986328 16.44287109 C1.11991593 18.30715194 1.13356005 20.17141703 1.15087891 22.03564453 C1.17515953 24.71651091 1.18649047 27.39716866 1.1953125 30.078125 C1.20563507 30.91055725 1.21595764 31.7429895 1.22659302 32.60064697 C1.22797609 39.74669236 1.22797609 39.74669236 -1 43 C-1.7997416 40.18186292 -2.13552908 37.67708421 -2.125 34.75 C-2.12757813 34.04359375 -2.13015625 33.3371875 -2.1328125 32.609375 C-2 30 -2 30 -1.52734375 26.421875 C-0.83353288 21.13156709 -0.65074562 15.82764476 -0.4375 10.5 C-0.39431641 9.48679687 -0.35113281 8.47359375 -0.30664062 7.4296875 C-0.20150808 4.9532321 -0.09936163 2.47669251 0 0 Z " fill="#2D2C89" transform="translate(325,339)"/>
<path d="M0 0 C3 2 3 2 3.875 4.375 C5.35005133 7.81678643 6.80405934 9.05464481 10 11 C12.70233303 11.60163258 15.22223595 11.81167701 18 12 C18 12.99 18 13.98 18 15 C14.91203881 15.89627898 12.20953356 16.38208733 9 16 C4.95398038 12.94654324 1.91385907 8.68756786 0 4 C0 2.68 0 1.36 0 0 Z " fill="#323491" transform="translate(220,208)"/>
<path d="M0 0 C-3 2 -3 2 -5.58203125 3.2109375 C-8.89311902 5.6608215 -8.99226995 7.6307484 -9.6875 11.625 C-10.07166309 13.76028686 -10.4970902 15.88952304 -11 18 C-11.66 18.33 -12.32 18.66 -13 19 C-13.08097324 16.72975032 -13.13917704 14.45867925 -13.1875 12.1875 C-13.22230469 10.92292969 -13.25710937 9.65835938 -13.29296875 8.35546875 C-13 5 -13 5 -11.61328125 3.05078125 C-10 2 -10 2 -8 2 C-8 1.34 -8 0.68 -8 0 C-4.71023192 -1.09658936 -3.28696233 -0.79953138 0 0 Z " fill="#3B3DA9" transform="translate(245,198)"/>
<path d="M0 0 C2.33333333 0 4.66666667 0 7 0 C6.83648055 6.37725838 3.12448738 10.47544687 -1 15 C-1.99 15.495 -1.99 15.495 -3 16 C-3 15.01 -3 14.02 -3 13 C-2.34 13 -1.68 13 -1 13 C-1.0928125 11.6078125 -1.0928125 11.6078125 -1.1875 10.1875 C-1 7 -1 7 0.5 5.125 C0.995 4.75375 1.49 4.3825 2 4 C1.34 3.67 0.68 3.34 0 3 C0 2.01 0 1.02 0 0 Z " fill="#32378C" transform="translate(273,208)"/>
<path d="M0 0 C0.33 0 0.66 0 1 0 C1 1.65 1 3.3 1 5 C1.886875 4.814375 2.77375 4.62875 3.6875 4.4375 C6.85178811 4.01957516 8.94839642 4.19222258 12 5 C11.01 5.66 10.02 6.32 9 7 C8.34 7.66 7.68 8.32 7 9 C7 9.33 7 9.66 7 10 C4.03 10 1.06 10 -2 10 C-1.34 9.01 -0.68 8.02 0 7 C-0.30840599 4.84725052 -0.30840599 4.84725052 -1 3 C-2.65 3 -4.3 3 -6 3 C-6 2.67 -6 2.34 -6 2 C-4.02 2 -2.04 2 0 2 C0 1.34 0 0.68 0 0 Z " fill="#3C409D" transform="translate(259,296)"/>
<path d="M0 0 C1.32 0.33 2.64 0.66 4 1 C3.01 1.495 3.01 1.495 2 2 C1.67 9.26 1.34 16.52 1 24 C-1.31 24 -3.62 24 -6 24 C-3 22 -3 22 -1 22 C-1.00523682 21.44014404 -1.01047363 20.88028809 -1.01586914 20.3034668 C-1.03666691 17.76482263 -1.04966904 15.22619641 -1.0625 12.6875 C-1.07087891 11.80642578 -1.07925781 10.92535156 -1.08789062 10.01757812 C-1.09111328 9.17001953 -1.09433594 8.32246094 -1.09765625 7.44921875 C-1.10289307 6.66893311 -1.10812988 5.88864746 -1.11352539 5.0847168 C-1 3 -1 3 0 0 Z " fill="#5253BD" transform="translate(180,134)"/>
<path d="M0 0 C1.051875 0.4640625 1.051875 0.4640625 2.125 0.9375 C5.08936657 2.03302678 7.87698108 2.56422992 11 3 C11 3.66 11 4.32 11 5 C13.97 5.495 13.97 5.495 17 6 C17 6.33 17 6.66 17 7 C11.72 7 6.44 7 1 7 C0.34 5.02 -0.32 3.04 -1 1 C-0.67 0.67 -0.34 0.34 0 0 Z " fill="#4A4DB5" transform="translate(241,193)"/>
<path d="M0 0 C0.66 0.33 1.32 0.66 2 1 C1.67 1.78375 1.34 2.5675 1 3.375 C0.10090505 6.6342192 -0.05336951 8.63773775 0.0625 11.9375 C0.18631494 16.75171624 -0.78487257 19.75433908 -3 24 C-3.33 24 -3.66 24 -4 24 C-4.48597288 15.86445406 -3.69826783 7.39653567 0 0 Z " fill="#2B297F" transform="translate(63,248)"/>
<path d="M0 0 C2.5 0.125 2.5 0.125 5 1 C6.3125 3.0625 6.3125 3.0625 7 5 C6.01 5.495 6.01 5.495 5 6 C5.33 6.66 5.66 7.32 6 8 C3.69 8 1.38 8 -1 8 C-1.625 5.125 -1.625 5.125 -2 2 C-1.34 1.34 -0.68 0.68 0 0 Z " fill="#ADB5F1" transform="translate(267,293)"/>
<path d="M0 0 C0.93423645 3.01031744 1.04449911 3.86650268 0 7 C-1.99954746 7.04254356 -4.00041636 7.04080783 -6 7 C-7 6 -7 6 -7.0625 2.9375 C-7.041875 1.968125 -7.02125 0.99875 -7 0 C-4.3333581 -1.33332095 -2.83319697 -0.67102033 0 0 Z " fill="#BCC3F5" transform="translate(244,294)"/>
<path d="M0 0 C0.86625 0.8971875 0.86625 0.8971875 1.75 1.8125 C4.97861689 4.95143308 7.49188586 7.19497962 12 8 C10.25 11.875 10.25 11.875 8 13 C7.71125 12.236875 7.4225 11.47375 7.125 10.6875 C3.93917102 6.65836335 -0.13203744 6.12337597 -5 5 C-4.360625 4.731875 -3.72125 4.46375 -3.0625 4.1875 C-0.66868314 3.11332248 -0.66868314 3.11332248 0 0 Z " fill="#292A7D" transform="translate(332,153)"/>
<path d="M0 0 C6.93 0 13.86 0 21 0 C17.84913952 2.10057366 17.29551742 2.21746143 13.75 2.0625 C9.6940937 1.96292783 5.9956459 2.31989006 2 3 C1.34 4.65 0.68 6.3 0 8 C-0.33 8 -0.66 8 -1 8 C-1.125 2.25 -1.125 2.25 0 0 Z " fill="#4C50CA" transform="translate(203,287)"/>
<path d="M0 0 C0.72445312 -0.01224609 1.44890625 -0.02449219 2.1953125 -0.03710938 C6.00700298 -0.04765833 7.7536304 0.0232536 11 2.1875 C10.42556152 2.21255615 9.85112305 2.2376123 9.25927734 2.26342773 C6.63100279 2.38019875 4.00301605 2.50255419 1.375 2.625 C0.47136719 2.66431641 -0.43226563 2.70363281 -1.36328125 2.74414062 C-5.98216146 2.96328458 -10.45153636 3.2883851 -15 4.1875 C-10.09861833 0.3001973 -6.10482148 0.00543134 0 0 Z " fill="#5A5BD3" transform="translate(250,166.8125)"/>
<path d="M0 0 C10.56 0 21.12 0 32 0 C32 0.33 32 0.66 32 1 C30.12528812 1.16987681 28.25021305 1.33574776 26.375 1.5 C25.33085937 1.5928125 24.28671875 1.685625 23.2109375 1.78125 C20 2 20 2 16.7265625 1.90625 C13.85039226 1.69468082 13.85039226 1.69468082 12 4 C12 3.34 12 2.68 12 2 C8.04 2 4.08 2 0 2 C0 1.34 0 0.68 0 0 Z " fill="#393EA5" transform="translate(256,287)"/>
<path d="M0 0 C0.66 0.66 1.32 1.32 2 2 C1.67578125 3.8515625 1.67578125 3.8515625 1 6 C0.86980469 6.70898438 0.73960938 7.41796875 0.60546875 8.1484375 C-0.37079692 13.34910506 -1.77102498 16.80233247 -5 21 C-6.33201473 18.33597054 -5.69751146 17.4413616 -4.78515625 14.6484375 C-4.51123047 13.79765625 -4.23730469 12.946875 -3.95507812 12.0703125 C-3.66052734 11.18085938 -3.36597656 10.29140625 -3.0625 9.375 C-2.77181641 8.4778125 -2.48113281 7.580625 -2.18164062 6.65625 C-1.46100166 4.43526435 -0.73354395 2.21675021 0 0 Z " fill="#2E2D88" transform="translate(119,155)"/>
<path d="M0 0 C7.54290017 -0.4946164 13.058915 1.09382609 20 4 C20 4.33 20 4.66 20 5 C9 5 9 5 7 4 C7.33 3.67 7.66 3.34 8 3 C5.36 2.34 2.72 1.68 0 1 C0 0.67 0 0.34 0 0 Z " fill="#2C2B84" transform="translate(316,98)"/>
<path d="M0 0 C0.66 0.33 1.32 0.66 2 1 C1.67 3.97 1.34 6.94 1 10 C0.01 9.34 -0.98 8.68 -2 8 C-5.12521833 7.83300768 -5.12521833 7.83300768 -8 8 C-7.67 7.01 -7.34 6.02 -7 5 C-6.01 5.33 -5.02 5.66 -4 6 C-4 5.34 -4 4.68 -4 4 C-4.66 3.67 -5.32 3.34 -6 3 C-5.195625 2.690625 -4.39125 2.38125 -3.5625 2.0625 C-1.10919595 1.23664655 -1.10919595 1.23664655 0 0 Z " fill="#B5C0F7" transform="translate(203,257)"/>
<path d="M0 0 C-0.62648438 0.19335938 -1.25296875 0.38671875 -1.8984375 0.5859375 C-2.71570313 0.84632812 -3.53296875 1.10671875 -4.375 1.375 C-5.18710937 1.63023438 -5.99921875 1.88546875 -6.8359375 2.1484375 C-9.16459185 2.89854283 -9.16459185 2.89854283 -11 5 C-11 4.34 -11 3.68 -11 3 C-11.99 3.33 -12.98 3.66 -14 4 C-18.08594833 5.1865126 -21.76342394 5.14865179 -26 5 C-26 4.34 -26 3.68 -26 3 C-25.09378906 2.87882812 -24.18757813 2.75765625 -23.25390625 2.6328125 C-14.98206278 1.502904 -14.98206278 1.502904 -6.8125 -0.1875 C-3 -1 -3 -1 0 0 Z " fill="#28267B" transform="translate(290,102)"/>
<path d="M0 0 C0.99 0 1.98 0 3 0 C3 0.66 3 1.32 3 2 C6.3 2 9.6 2 13 2 C12.01 3.485 12.01 3.485 11 5 C9.35 4.67 7.7 4.34 6 4 C5.67 5.65 5.34 7.3 5 9 C4.01 9.33 3.02 9.66 2 10 C1.67 8.68 1.34 7.36 1 6 C1.66 6 2.32 6 3 6 C3 5.01 3 4.02 3 3 C2.34 3 1.68 3 1 3 C0.67 2.01 0.34 1.02 0 0 Z " fill="#474CA7" transform="translate(261,290)"/>
<path d="M0 0 C1.99710729 0.26191571 3.99403078 0.52574674 5.98828125 0.80859375 C8.20582199 1.01958306 9.91278603 0.78270524 12 0 C12.33 1.32 12.66 2.64 13 4 C9.7 4 6.4 4 3 4 C3 3.34 3 2.68 3 2 C1.68 1.67 0.36 1.34 -1 1 C-0.67 0.67 -0.34 0.34 0 0 Z " fill="#3B3BB3" transform="translate(261,288)"/>
<path d="M0 0 C1.07217941 4.28871762 0.87487306 5.255431 -0.6875 9.1875 C-1.02136719 10.06792969 -1.35523437 10.94835937 -1.69921875 11.85546875 C-3 14 -3 14 -5.14453125 14.80078125 C-6.06298828 14.89939453 -6.06298828 14.89939453 -7 15 C-7 13.35 -7 11.7 -7 10 C-6.01 10 -5.02 10 -4 10 C-2.68 6.7 -1.36 3.4 0 0 Z " fill="#070849" transform="translate(121,145)"/>
<path d="M0 0 C0.99 0 1.98 0 3 0 C3 3.96 3 7.92 3 12 C2.01 12 1.02 12 0 12 C0 8.04 0 4.08 0 0 Z " fill="#AEB6F2" transform="translate(246,290)"/>
<path d="M0 0 C1.32 0 2.64 0 4 0 C5.33333333 2.66666667 6.66666667 5.33333333 8 8 C7.34 8 6.68 8 6 8 C6 11.63 6 15.26 6 19 C5.67 19 5.34 19 5 19 C4.89042969 18.04738281 4.78085937 17.09476563 4.66796875 16.11328125 C4.50941406 14.85902344 4.35085938 13.60476562 4.1875 12.3125 C4.03667969 11.07113281 3.88585937 9.82976562 3.73046875 8.55078125 C3.01333526 5.06482218 2.01965188 2.89391214 0 0 Z " fill="#3C3F9C" transform="translate(261,200)"/>
<path d="M0 0 C5.5 -0.36666667 5.5 -0.36666667 7.875 1.375 C9 3 9 3 9 5 C7.02 5.99 7.02 5.99 5 7 C5 6.01 5 5.02 5 4 C3.35 3.67 1.7 3.34 0 3 C0 2.01 0 1.02 0 0 Z " fill="#1A1A63" transform="translate(240,345)"/>
<path d="M0 0 C-0.125 1.75 -0.125 1.75 -1 4 C-3.8125 6.0625 -3.8125 6.0625 -7 8 C-8.34175973 8.98866506 -9.67896002 9.9838154 -11 11 C-9.65319085 8.08728356 -8.12551255 5.70671723 -6.0625 3.25 C-5.55847656 2.63640625 -5.05445313 2.0228125 -4.53515625 1.390625 C-3 0 -3 0 0 0 Z " fill="#282C70" transform="translate(277,321)"/>
<path d="M0 0 C0.99 0 1.98 0 3 0 C3.06058594 0.78246094 3.12117188 1.56492187 3.18359375 2.37109375 C3.26738281 3.38300781 3.35117187 4.39492188 3.4375 5.4375 C3.55931641 6.95150391 3.55931641 6.95150391 3.68359375 8.49609375 C3.73211468 10.93640779 3.73211468 10.93640779 5 12 C5.04063832 13.66617115 5.042721 15.33388095 5 17 C4.34 16.67 3.68 16.34 3 16 C2.1484375 13.41796875 2.1484375 13.41796875 1.375 10.1875 C0.98441406 8.60001953 0.98441406 8.60001953 0.5859375 6.98046875 C0 4 0 4 0 0 Z " fill="#272575" transform="translate(59,296)"/>
<path d="M0 0 C0 0.99 0 1.98 0 3 C-1.8125 4.0625 -1.8125 4.0625 -4 5 C-4.99 4.67 -5.98 4.34 -7 4 C-7.33 4.99 -7.66 5.98 -8 7 C-7.625 4.0625 -7.625 4.0625 -7 1 C-4.53721199 -0.231394 -2.7204945 -0.07159196 0 0 Z " fill="#4D4FC1" transform="translate(201,250)"/>
<path d="M0 0 C1.04449911 3.13349732 0.93423645 3.98968256 0 7 C-1.32 7.33 -2.64 7.66 -4 8 C-5.65 6.02 -7.3 4.04 -9 2 C-8.34 1.67 -7.68 1.34 -7 1 C-7 1.66 -7 2.32 -7 3 C-5.68 3 -4.36 3 -3 3 C-3 2.34 -3 1.68 -3 1 C-2.01 0.67 -1.02 0.34 0 0 Z " fill="#4D4ECC" transform="translate(261,176)"/>
<path d="M0 0 C0.99 0.33 1.98 0.66 3 1 C3.75 2.9375 3.75 2.9375 4 5 C3.67 5.66 3.34 6.32 3 7 C1 7 -1 7 -3 7 C-2.25 2.25 -2.25 2.25 0 0 Z " fill="#D6DFFB" transform="translate(163,160)"/>
<path d="M0 0 C0 0.66 0 1.32 0 2 C-0.99 2 -1.98 2 -3 2 C-3 2.66 -3 3.32 -3 4 C-1.35 4 0.3 4 2 4 C2 4.66 2 5.32 2 6 C0.02 6.33 -1.96 6.66 -4 7 C-4.66 5.68 -5.32 4.36 -6 3 C-3.375 0 -3.375 0 0 0 Z " fill="#9DA4E3" transform="translate(256,295)"/>
<path d="M0 0 C0.99 0 1.98 0 3 0 C2.125 3.875 2.125 3.875 1 5 C-0.66617115 5.04063832 -2.33388095 5.042721 -4 5 C-4.66 3.68 -5.32 2.36 -6 1 C-4.7934375 1.0309375 -4.7934375 1.0309375 -3.5625 1.0625 C-1.06645115 1.29633621 -1.06645115 1.29633621 0 0 Z " fill="#2D3190" transform="translate(200,269)"/>
<path d="M0 0 C2.64 0 5.28 0 8 0 C7.67 1.32 7.34 2.64 7 4 C4.69 4 2.38 4 0 4 C0 2.68 0 1.36 0 0 Z " fill="#2F318D" transform="translate(209,239)"/>
<path d="M0 0 C1.2065625 0.0309375 1.2065625 0.0309375 2.4375 0.0625 C2.2725 1.01125 2.1075 1.96 1.9375 2.9375 C1.3848365 5.86418901 1.3848365 5.86418901 1.4375 8.0625 C-0.5425 8.0625 -2.5225 8.0625 -4.5625 8.0625 C-3.5625 5.0625 -3.5625 5.0625 -1.5625 2.0625 C-2.2225 1.7325 -2.8825 1.4025 -3.5625 1.0625 C-2.5625 0.0625 -2.5625 0.0625 0 0 Z " fill="#181962" transform="translate(278.5625,318.9375)"/>
<path d="M0 0 C6.93 0 13.86 0 21 0 C21.33 1.32 21.66 2.64 22 4 C20.68 3.67 19.36 3.34 18 3 C18.33 2.67 18.66 2.34 19 2 C12.73 1.67 6.46 1.34 0 1 C0 0.67 0 0.34 0 0 Z " fill="#4F53D0" transform="translate(285,267)"/>
<path d="M0 0 C0.66 0 1.32 0 2 0 C2.66 1.65 3.32 3.3 4 5 C3.34 5 2.68 5 2 5 C2.33 6.32 2.66 7.64 3 9 C2.01 9.495 2.01 9.495 1 10 C0.67 10.99 0.34 11.98 0 13 C-2 12 -2 12 -3 10 C-2.01 9.34 -1.02 8.68 0 8 C0.33 7.01 0.66 6.02 1 5 C0.01 4.67 -0.98 4.34 -2 4 C-1.34 2.68 -0.68 1.36 0 0 Z " fill="#B0BFFA" transform="translate(306,234)"/>
<path d="M0 0 C1.23556641 0.01740234 1.23556641 0.01740234 2.49609375 0.03515625 C3.32238281 0.04417969 4.14867187 0.05320313 5 0.0625 C5.63808594 0.07410156 6.27617187 0.08570313 6.93359375 0.09765625 C7.26359375 1.41765625 7.59359375 2.73765625 7.93359375 4.09765625 C6.94359375 4.09765625 5.95359375 4.09765625 4.93359375 4.09765625 C4.60359375 3.76765625 4.27359375 3.43765625 3.93359375 3.09765625 C0.21134776 2.80379472 -0.84426868 2.94956454 -4.06640625 5.09765625 C-2.94676868 0.13926128 -2.94676868 0.13926128 0 0 Z " fill="#B8C2FB" transform="translate(197.06640625,233.90234375)"/>
<path d="M0 0 C0.99 0 1.98 0 3 0 C3 3.3 3 6.6 3 10 C2.01 9.67 1.02 9.34 0 9 C0 6.03 0 3.06 0 0 Z " fill="#080842" transform="translate(72,166)"/>
<path d="M0 0 C0.33 0 0.66 0 1 0 C1 3.63 1 7.26 1 11 C-1.31 10.34 -3.62 9.68 -6 9 C-6 8.67 -6 8.34 -6 8 C-4.35 8 -2.7 8 -1 8 C-1 7.34 -1 6.68 -1 6 C-2.65 6 -4.3 6 -6 6 C-6 5.67 -6 5.34 -6 5 C-4.02 5 -2.04 5 0 5 C0 3.35 0 1.7 0 0 Z " fill="#4C50AA" transform="translate(245,293)"/>
<path d="M0 0 C1.98 1.65 3.96 3.3 6 5 C5.67 6.32 5.34 7.64 5 9 C2.5 7.875 2.5 7.875 0 6 C-0.3125 2.8125 -0.3125 2.8125 0 0 Z " fill="#4A4AC6" transform="translate(270,174)"/>
<path d="M0 0 C0.33 0 0.66 0 1 0 C1.06058594 0.83144531 1.12117187 1.66289062 1.18359375 2.51953125 C1.26738281 3.60621094 1.35117188 4.69289062 1.4375 5.8125 C1.51871094 6.89144531 1.59992188 7.97039062 1.68359375 9.08203125 C1.90212461 12.05989905 1.90212461 12.05989905 3 15 C3.99 15.66 4.98 16.32 6 17 C4.02 17 2.04 17 0 17 C0 11.39 0 5.78 0 0 Z " fill="#12145E" transform="translate(181,141)"/>
<path d="M0 0 C0.66 0 1.32 0 2 0 C2 3.63 2 7.26 2 11 C1.01 10.67 0.02 10.34 -1 10 C-1.33 8.02 -1.66 6.04 -2 4 C-1.34 4 -0.68 4 0 4 C0 2.68 0 1.36 0 0 Z " fill="#D1D9FF" transform="translate(233,290)"/>
<path d="M0 0 C0.99 0.33 1.98 0.66 3 1 C3 2.65 3 4.3 3 6 C3.99 6 4.98 6 6 6 C6 6.66 6 7.32 6 8 C3.625 7.8125 3.625 7.8125 1 7 C-0.375 4.5625 -0.375 4.5625 -1 2 C-0.67 1.34 -0.34 0.68 0 0 Z " fill="#B5C2F4" transform="translate(206,252)"/>
<path d="M0 0 C2.625 0.375 2.625 0.375 5 1 C4.34 2.32 3.68 3.64 3 5 C1.35 5 -0.3 5 -2 5 C-2 2 -2 2 0 0 Z " fill="#2D2F93" transform="translate(198,241)"/>
<path d="M0 0 C0.33 0.66 0.66 1.32 1 2 C1.66 2.33 2.32 2.66 3 3 C3.5625 5.3125 3.5625 5.3125 4 8 C4.32483418 9.33542939 4.6550855 10.66961551 5 12 C2.525 11.01 2.525 11.01 0 10 C0 6.7 0 3.4 0 0 Z " fill="#4545BE" transform="translate(258,181)"/>
<path d="M0 0 C1.4606285 2.64738916 2 3.89448334 2 7 C1.01 6.67 0.02 6.34 -1 6 C-2.33106622 5.65772583 -3.66400079 5.32248257 -5 5 C-3.35 3.35 -1.7 1.7 0 0 Z " fill="#B5C5FA" transform="translate(300,305)"/>
<path d="M0 0 C1.67542976 0.28604898 3.34385343 0.61781233 5 1 C5.33 2.32 5.66 3.64 6 5 C4.35 5 2.7 5 1 5 C1.99 4.67 2.98 4.34 4 4 C4 3.34 4 2.68 4 2 C2.02 2.99 0.04 3.98 -2 5 C-1.125 1.125 -1.125 1.125 0 0 Z " fill="#C5CFFE" transform="translate(252,293)"/>
<path d="M0 0 C2.97 0.495 2.97 0.495 6 1 C5.67 2.32 5.34 3.64 5 5 C3.02 5 1.04 5 -1 5 C-0.67 3.35 -0.34 1.7 0 0 Z " fill="#4244B4" transform="translate(194,266)"/>
<path d="M0 0 C2.64 0 5.28 0 8 0 C7.67 0.66 7.34 1.32 7 2 C6.34 2 5.68 2 5 2 C5 2.66 5 3.32 5 4 C3.35 4 1.7 4 0 4 C0 2.68 0 1.36 0 0 Z " fill="#2B2D8A" transform="translate(209,253)"/>
<path d="M0 0 C0.99 0.66 1.98 1.32 3 2 C2.01 2.66 1.02 3.32 0 4 C-1.01187895 5.65948148 -2.0126546 7.32580562 -3 9 C-3.99 9.495 -3.99 9.495 -5 10 C-4.49701212 5.59885603 -2.91227269 3.28804981 0 0 Z " fill="#2D2C87" transform="translate(69,238)"/>
<path d="M0 0 C0.99 0 1.98 0 3 0 C2.8864371 1.64666203 2.75882619 3.29236082 2.625 4.9375 C2.52058594 6.31228516 2.52058594 6.31228516 2.4140625 7.71484375 C2.27742187 8.46894531 2.14078125 9.22304687 2 10 C1.01 10.495 1.01 10.495 0 11 C0 7.37 0 3.74 0 0 Z " fill="#373A9A" transform="translate(232,206)"/>
<path d="M0 0 C0.33 0 0.66 0 1 0 C1 3.3 1 6.6 1 10 C-0.98 10 -2.96 10 -5 10 C-5 9.01 -5 8.02 -5 7 C-3.68 6.67 -2.36 6.34 -1 6 C-0.67 4.02 -0.34 2.04 0 0 Z " fill="#2D2B98" transform="translate(172,147)"/>
<path d="M0 0 C0.66 0.33 1.32 0.66 2 1 C1.125 4.875 1.125 4.875 0 6 C-1.99958364 6.04080783 -4.00045254 6.04254356 -6 6 C-4 4 -2 2 0 0 Z " fill="#191B64" transform="translate(269,329)"/>
<path d="M0 0 C1.32 0.33 2.64 0.66 4 1 C4.33 2.32 4.66 3.64 5 5 C3.35 5 1.7 5 0 5 C0 3.35 0 1.7 0 0 Z " fill="#4C4EC5" transform="translate(228,288)"/>
<path d="M0 0 C3.465 1.485 3.465 1.485 7 3 C5.625 4.5 5.625 4.5 4 6 C3.34 6 2.68 6 2 6 C2 6.66 2 7.32 2 8 C1.34 8 0.68 8 0 8 C0 5.36 0 2.72 0 0 Z " fill="#B1BEF3" transform="translate(193,271)"/>
<path d="M0 0 C2.64 0 5.28 0 8 0 C7 3 7 3 4.9375 4.1875 C4.298125 4.455625 3.65875 4.72375 3 5 C2.01 3.35 1.02 1.7 0 0 Z " fill="#CED9FD" transform="translate(226,169)"/>
<path d="M0 0 C0.99 0 1.98 0 3 0 C3 0.66 3 1.32 3 2 C3.598125 1.649375 4.19625 1.29875 4.8125 0.9375 C7 0 7 0 10 1 C6.3558226 3.4294516 4.28758728 3.16179575 0 3 C0 2.01 0 1.02 0 0 Z " fill="#B1BCF6" transform="translate(328,315)"/>
<path d="M0 0 C2.66666667 1.33333333 5.33333333 2.66666667 8 4 C7.34 4 6.68 4 6 4 C5.67 4.66 5.34 5.32 5 6 C2.5 4.6875 2.5 4.6875 0 3 C0 2.01 0 1.02 0 0 Z " fill="#B1BDF8" transform="translate(201,305)"/>
<path d="M0 0 C0 0.66 0 1.32 0 2 C-0.763125 2.12375 -1.52625 2.2475 -2.3125 2.375 C-5.20267136 2.88102792 -5.20267136 2.88102792 -8 5 C-7.67 3.35 -7.34 1.7 -7 0 C-3.98968256 -0.93423645 -3.13349732 -1.04449911 0 0 Z " fill="#3C3DAC" transform="translate(202,240)"/>
<path d="M0 0 C3 3 3 3 3.1875 5.6875 C3.0946875 6.8321875 3.0946875 6.8321875 3 8 C2.01 8.33 1.02 8.66 0 9 C0 6.03 0 3.06 0 0 Z " fill="#3F3EB5" transform="translate(218,195)"/>
<path d="M0 0 C2.125 0.9375 2.125 0.9375 4 2 C4 2.66 4 3.32 4 4 C2.02 4.99 2.02 4.99 0 6 C-0.66 5.34 -1.32 4.68 -2 4 C-2 3.01 -2 2.02 -2 1 C-1.34 0.67 -0.68 0.34 0 0 Z " fill="#4D4ECF" transform="translate(243,176)"/>
<path d="M0 0 C1.67542976 0.28604898 3.34385343 0.61781233 5 1 C5.33 1.99 5.66 2.98 6 4 C5.01 4 4.02 4 3 4 C2.67 4.66 2.34 5.32 2 6 C1.01 4.35 0.02 2.7 -1 1 C-0.67 0.67 -0.34 0.34 0 0 Z " fill="#4B4AD9" transform="translate(261,171)"/>
<path d="M0 0 C2.31 0 4.62 0 7 0 C6.01 0.66 5.02 1.32 4 2 C2.64631404 3.31266518 1.31200404 4.64567325 0 6 C-0.66 6.66 -1.32 7.32 -2 8 C-1.47731534 5.23723823 -0.89130413 2.6739124 0 0 Z " fill="#3A3A90" transform="translate(161,158)"/>
<path d="M0 0 C2.52259061 1.97420135 2.9929808 2.96745642 3.6875 6.1875 C3.790625 7.115625 3.89375 8.04375 4 9 C1.24338912 6.51015791 -0.60746455 4.79450934 -1 1 C-0.67 0.67 -0.34 0.34 0 0 Z " fill="#242372" transform="translate(69,321)"/>
<path d="M0 0 C0.66 0.33 1.32 0.66 2 1 C2 1.66 2 2.32 2 3 C4.31 3 6.62 3 9 3 C5.1496895 5.56687367 3.41430237 4.83288724 -1 4 C-0.67 2.68 -0.34 1.36 0 0 Z " fill="#313385" transform="translate(241,226)"/>
<path d="M0 0 C0 3.20395416 -0.74335022 5.09399739 -2 8 C-3.32 7.67 -4.64 7.34 -6 7 C-4.02 4.69 -2.04 2.38 0 0 Z " fill="#5154C4" transform="translate(228,175)"/>
<path d="M0 0 C-0.66 1.65 -1.32 3.3 -2 5 C-3.65 4.67 -5.3 4.34 -7 4 C-6.34 3.67 -5.68 3.34 -5 3 C-5 2.34 -5 1.68 -5 1 C-2 0 -2 0 0 0 Z " fill="#4F4EE1" transform="translate(240,170)"/>
<path d="M0 0 C0.99 0.33 1.98 0.66 3 1 C3 2.98 3 4.96 3 7 C2.01 7 1.02 7 0 7 C0 4.69 0 2.38 0 0 Z " fill="#1E1D7E" transform="translate(316,135)"/>
<path d="M0 0 C-0.185625 0.5775 -0.37125 1.155 -0.5625 1.75 C-1.04023546 4.20692525 -0.75729364 5.64397534 0 8 C-4.875 3.25 -4.875 3.25 -6 1 C-3.92446352 0.4465236 -2.15634036 0 0 0 Z " fill="#ACBAF2" transform="translate(246,337)"/>
<path d="M0 0 C2.33333333 0 4.66666667 0 7 0 C6.67 0.99 6.34 1.98 6 3 C4.35 3.33 2.7 3.66 1 4 C0.67 2.68 0.34 1.36 0 0 Z " fill="#2F3094" transform="translate(273,208)"/>
<path d="M0 0 C1.65 0.33 3.3 0.66 5 1 C4.01 1.66 3.02 2.32 2 3 C0.79549696 5.55183404 0.79549696 5.55183404 0 8 C-0.33 8 -0.66 8 -1 8 C-1.125 2.25 -1.125 2.25 0 0 Z " fill="#5457D6" transform="translate(203,287)"/>
<path d="M0 0 C0.66 0.99 1.32 1.98 2 3 C1.125 6.6875 1.125 6.6875 0 10 C-0.33 10 -0.66 10 -1 10 C-1.125 2.25 -1.125 2.25 0 0 Z " fill="#313087" transform="translate(76,164)"/>
<path d="M0 0 C1.32 0 2.64 0 4 0 C3.67 1.65 3.34 3.3 3 5 C2.01 5 1.02 5 0 5 C0 3.35 0 1.7 0 0 Z " fill="#070A38" transform="translate(114,155)"/>
<path d="M0 0 C0.33 0.99 0.66 1.98 1 3 C-0.4375 5.6875 -0.4375 5.6875 -2 8 C-2.99 7.34 -3.98 6.68 -5 6 C-4.34 6 -3.68 6 -3 6 C-2.67 4.68 -2.34 3.36 -2 2 C-1.34 2 -0.68 2 0 2 C0 1.34 0 0.68 0 0 Z " fill="#302D85" transform="translate(270,86)"/>
<path d="M0 0 C3 2 3 2 3.6875 4.625 C3.8421875 5.800625 3.8421875 5.800625 4 7 C3.01 7.495 3.01 7.495 2 8 C0.23537317 4.91190305 0 3.76687864 0 0 Z " fill="#3D429D" transform="translate(220,208)"/>
</svg>
